<?xml version="1.0" encoding="UTF-8" standalone="no"?>
<svg
   id="Capa_1"
   enable-background="new 0 0 512 512"
   height="48"
   viewBox="0 0 48 48"
   width="48"
   version="1.1"
   sodipodi:docname="customer.svg"
   inkscape:version="1.3.2 (091e20e, 2023-11-25, custom)"
   xmlns:inkscape="http://www.inkscape.org/namespaces/inkscape"
   xmlns:sodipodi="http://sodipodi.sourceforge.net/DTD/sodipodi-0.dtd"
   xmlns="http://www.w3.org/2000/svg"
   xmlns:svg="http://www.w3.org/2000/svg">
  <sodipodi:namedview
     id="namedview28"
     pagecolor="#ffffff"
     bordercolor="#666666"
     borderopacity="1.0"
     inkscape:showpageshadow="2"
     inkscape:pageopacity="0.0"
     inkscape:pagecheckerboard="0"
     inkscape:deskcolor="#d1d1d1"
     inkscape:zoom="4.0713882"
     inkscape:cx="43.965348"
     inkscape:cy="80.562203"
     inkscape:current-layer="Capa_1" />
  <defs
     id="defs28" />
  <g
     id="g1"
     transform="matrix(0.34938178,0,0,0.34938178,1.0173767,-0.00830275)">
    <g
       id="leg-4"
       transform="translate(-0.49123,-8.151347)">
      <path
         d="m 87.29198,122.36467 0.08684,-30.970088 c 4.784144,0 5.916969,0.09168 11.169661,0.09168 v 30.878408 z"
         fill="#ffc4c8"
         id="path2"
         style="stroke-width:0.271389" />
      <path
         d="m 98.54848,116.27917 h -11.2565 v 6.0855 h 11.2565 z"
         fill="#fe99a0"
         id="path20"
         style="stroke-width:0.25" />
      <path
         d="m 98.54848,116.27917 h -5.0755 v 6.0855 h 5.0755 z"
         fill="#fd8087"
         id="path21"
         style="stroke-width:0.25" />
    </g>
    <g
       id="leg-2"
       transform="translate(-0.49123,-8.151347)">
      <path
         d="M 31.060055,122.36467 V 95.378011 c 3.01625,1.413254 6.14175,2.127547 9.33575,2.127547 h 1.921 v 24.859112 z"
         fill="#ffc4c8"
         id="path4"
         style="stroke-width:0.313495" />
      <path
         d="m 42.294207,116.27917 h -11.2565 v 6.0855 h 11.2565 z"
         fill="#fe99a0"
         id="path22"
         style="stroke-width:0.25" />
      <path
         d="m 42.294207,116.27917 h -5.0755 v 6.0855 h 5.0755 z"
         fill="#fd8087"
         id="path23"
         style="stroke-width:0.25" />
    </g>
    <path
       d="m 11.54375,21.92307 h 9.239 c 1.03575,0 1.875,0.8395 1.875,1.875 0,1.0355 -0.83925,1.875 -1.875,1.875 h -9.239 c -4.2975,0 -7.79375,3.49625 -7.79375,7.79375 0,4.2975 3.49625,7.79375 7.79375,7.79375 h 6.3015 c -1.24775,1.159 -2.407,2.41225 -3.46375,3.75 H 11.54375 C 5.1785,45.01057 0,39.83207 0,33.46682 0,27.10157 5.1785,21.92307 11.54375,21.92307 Z"
       fill="#fd8087"
       id="tail"
       style="stroke-width:0.25" />
    <g
       id="leg-1"
       transform="translate(-0.49123,-8.151347)">
      <path
         d="m 23.77748,116.27917 h -11.2565 v 6.0855 h 11.2565 z"
         fill="#ffc4c8"
         id="path26"
         style="stroke-width:0.25" />
      <path
         d="m 23.77748,116.27917 h -5.0755 v 6.0855 h 5.0755 z"
         fill="#fdb4ba"
         id="path27"
         style="stroke-width:0.25" />
      <path
         id="rect28"
         style="fill:#f3626c;stroke-width:1.58136"
         d="M 12.591587,91.853226 H 23.793758 V 116.18996 H 12.591587 Z" />
    </g>
    <path
       id="body"
       style="fill:#f3626c;fill-opacity:1;stroke-width:0.25"
       d="m 40.272442,32.188497 c -18.278232,0 -33.232422,14.95419 -33.232422,33.232422 0,10.344392 2.990115,15.925701 4.865234,18.212891 0.154793,0.11342 -8.3835709,-5.94071 0.251954,0.19727 11.754938,8.35519 13.318564,14.6387 28.115235,14.82419 h 25.083984 c 16.780792,0.47893 31.20464,-3.8824 39.191403,-20.00195 -2.98799,0.539 -6.154594,0.83008 -9.43359,0.83008 -17.994982,0 -32.634766,-8.729996 -32.634766,-19.458986 0,-3.180997 1.322268,-6.339065 3.822266,-9.132812 0.565749,-0.6325 0.912656,-1.428939 1.003906,-2.304688 0.29175,-2.798497 1.002079,-5.526221 2.111328,-8.105469 l 0.01953,-0.04687 v -8.246094 z" />
    <g
       id="head"
       transform="translate(-0.49123,-8.151347)">
      <path
         d="m 76.83148,38.948917 c -3.1575,2.863 -5.5875,6.3675 -7.153,10.23825 v -18.4965 c 0,-1.51 1.3115,-2.68425 2.813,-2.5245 5.574,0.59275 9.59725,2.91975 12.46275,5.6455 -2.957,1.21825 -5.70675,2.947 -8.12275,5.13725 z"
         fill="#fdb4ba"
         id="path8"
         style="stroke-width:0.25" />
      <path
         d="m 80.12248,36.385917 c -2.5945,-2.144 -6.001,-3.9095 -10.444,-4.551 v -1.14425 c 0,-1.51 1.3115,-2.68425 2.813,-2.5245 5.574,0.59275 9.59725,2.91975 12.46275,5.6455 -1.686,0.69475 -3.30375,1.55675 -4.83175,2.57425 z"
         fill="#fe99a0"
         id="path9"
         style="stroke-width:0.25" />
      <path
         d="m 114.38073,38.948917 c -2.41575,-2.1905 -5.16575,-3.919 -8.12275,-5.13725 2.8655,-2.72575 6.88875,-5.05275 12.46275,-5.6455 1.5015,-0.15975 2.813,1.0145 2.813,2.5245 v 18.4965 c -1.5655,-3.87075 -3.9955,-7.37525 -7.153,-10.23825 z"
         fill="#fe99a0"
         id="path10"
         style="stroke-width:0.25" />
      <path
         d="m 116.45848,41.043417 v -10.35275 c 0,-0.797 -0.3675,-1.49775 -0.93325,-1.961 1.0045,-0.251 2.06725,-0.44375 3.1955,-0.56375 1.5015,-0.15975 2.813,1.0145 2.813,2.5245 v 18.4965 c -1.20225,-2.97225 -2.915,-5.728 -5.07525,-8.1435 z"
         fill="#fd8087"
         id="path11"
         style="stroke-width:0.25" />
      <path
         d="m 66.60648,58.876667 c 0.538,-0.60125 0.8585,-1.362 0.942,-2.16425 1.479,-14.19075 13.4755,-25.25425 28.05775,-25.25425 14.58225,0 26.5785,11.0635 28.05775,25.25425 0.0838,0.80225 0.40425,1.563 0.942,2.16425 2.47875,2.77025 3.88525,5.9365 3.88525,9.29975 0,10.88425 -14.72325,19.70775 -32.885,19.70775 -18.162,0 -32.885,-8.8235 -32.885,-19.70775 0,-3.36325 1.40625,-6.5295 3.88525,-9.29975 z"
         fill="#ffc4c8"
         id="path12"
         style="stroke-width:0.25" />
      <path
         d="m 120.87798,68.176417 c 0,-3.36325 -1.4065,-6.5295 -3.88525,-9.29975 -0.538,-0.60125 -0.8585,-1.362 -0.942,-2.16425 -1.348,-12.93425 -11.43425,-23.26875 -24.251,-24.99775 1.24525,-0.168 2.5155,-0.25625 3.8065,-0.25625 14.58225,0 26.57875,11.0635 28.05775,25.25425 0.0838,0.80225 0.40425,1.563 0.942,2.16425 2.47875,2.77 3.88525,5.93625 3.88525,9.2995 0,10.88425 -14.72325,19.70775 -32.885,19.70775 -1.28775,0 -2.5575,-0.046 -3.8065,-0.13225 16.36825,-1.131 29.07825,-9.463 29.07825,-19.5755 z"
         fill="#fdb4ba"
         id="path13"
         style="stroke-width:0.25" />
      <g
         id="snout">
        <path
           d="m 89.90048,77.411417 h 11.4115 c 3.85,0 7,-3.15 7,-7 v -0.8635 c 0,-3.85 -3.15,-7 -7,-7 h -11.4115 c -3.85,0 -7,3.15 -7,7 v 0.8635 c 0,3.85 3.15,7 7,7 z"
           fill="#fe99a0"
           id="path14"
           style="stroke-width:0.25" />
        <path
           d="m 103.23648,70.305917 v -0.652 c 0,-3.908 -3.1975,-7.10575 -7.10575,-7.10575 h 5.0755 c 3.908,0 7.10575,3.1975 7.10575,7.10575 v 0.652 c 0,3.908 -3.1975,7.10575 -7.10575,7.10575 h -5.0755 c 3.90825,-2.5e-4 7.10575,-3.19775 7.10575,-7.10575 z"
           fill="#fd8087"
           id="path15"
           style="stroke-width:0.25" />
        <path
           d="m 99.90348,72.869417 c 1.03575,0 1.875,-0.8395 1.875,-1.875 v -2.292 c 0,-1.0355 -0.83925,-1.875 -1.875,-1.875 -1.03575,0 -1.875,0.8395 -1.875,1.875 v 2.292 c 0,1.0355 0.8395,1.875 1.875,1.875 z"
           fill="#ffc4c8"
           id="path16"
           style="stroke-width:0.25" />
        <path
           d="m 91.30898,72.869417 c 1.03575,0 1.875,-0.8395 1.875,-1.875 v -2.292 c 0,-1.0355 -0.83925,-1.875 -1.875,-1.875 -1.03575,0 -1.875,0.8395 -1.875,1.875 v 2.292 c 0,1.0355 0.83925,1.875 1.875,1.875 z"
           fill="#ffc4c8"
           id="path17"
           style="stroke-width:0.25" />
      </g>
      <path
         id="left-eye"
         style="fill:#ffffff;stroke-width:2"
         d="m 93.33426,50.842606 a 6.5088363,7.1228776 0 0 1 -6.508836,7.122877 6.5088363,7.1228776 0 0 1 -6.508836,-7.122877 6.5088363,7.1228776 0 0 1 6.508836,-7.122878 6.5088363,7.1228776 0 0 1 6.508836,7.122878 z" />
      <path
         id="right-eye"
         style="fill:#ffffff;stroke-width:2"
         d="m 110.93014,51.087811 a 6.5088363,7.1228776 0 0 1 -6.50884,7.122877 6.5088363,7.1228776 0 0 1 -6.508833,-7.122877 6.5088363,7.1228776 0 0 1 6.508833,-7.122878 6.5088363,7.1228776 0 0 1 6.50884,7.122878 z" />
      <path
         id="right-pupil"
         style="stroke-width:0.754717"
         d="m 106.96492,52.98624 a 2.4561646,2.6878784 0 0 1 -2.45617,2.687879 2.4561646,2.6878784 0 0 1 -2.45616,-2.687879 2.4561646,2.6878784 0 0 1 2.45616,-2.687878 2.4561646,2.6878784 0 0 1 2.45617,2.687878 z" />
      <path
         id="left-pupil"
         style="stroke-width:0.754717"
         d="m 89.543697,52.793083 a 2.4561646,2.6878784 0 0 1 -2.456165,2.687879 2.4561646,2.6878784 0 0 1 -2.456165,-2.687879 2.4561646,2.6878784 0 0 1 2.456165,-2.687878 2.4561646,2.6878784 0 0 1 2.456165,2.687878 z" />
    </g>
    <g
       id="leg-3"
       transform="translate(-0.49123,-8.151347)">
      <path
         d="m 79.64098,116.27917 h -11.2565 v 6.0855 h 11.2565 z"
         fill="#ffc4c8"
         id="path24"
         style="stroke-width:0.25" />
      <path
         d="m 79.64098,116.27917 h -5.0755 v 6.0855 h 5.0755 z"
         fill="#fdb4ba"
         id="path25"
         style="stroke-width:0.25" />
      <path
         id="rect28-3"
         style="fill:#f3626c;stroke-width:1.58568"
         d="M 68.37516,92.173676 H 79.638736 V 116.51041 H 68.37516 Z" />
    </g>
  </g>
</svg>
