<?xml version="1.0" encoding="UTF-8" standalone="no"?>
<!-- Created with Inkscape (http://www.inkscape.org/) -->

<svg
   width="400"
   height="300"
   viewBox="0 0 400 300"
   version="1.1"
   id="svg1"
   inkscape:version="1.3.2 (091e20e, 2023-11-25, custom)"
   sodipodi:docname="demo-piggy-treadmill.svg"
   xml:space="preserve"
   inkscape:export-filename="demo-piggy-treadmill.png"
   inkscape:export-xdpi="96"
   inkscape:export-ydpi="96"
   xmlns:inkscape="http://www.inkscape.org/namespaces/inkscape"
   xmlns:sodipodi="http://sodipodi.sourceforge.net/DTD/sodipodi-0.dtd"
   xmlns:xlink="http://www.w3.org/1999/xlink"
   xmlns="http://www.w3.org/2000/svg"
   xmlns:svg="http://www.w3.org/2000/svg"><sodipodi:namedview
     id="namedview1"
     pagecolor="#ffffff"
     bordercolor="#666666"
     borderopacity="1.0"
     inkscape:showpageshadow="2"
     inkscape:pageopacity="0.0"
     inkscape:pagecheckerboard="0"
     inkscape:deskcolor="#d1d1d1"
     inkscape:document-units="px"
     inkscape:zoom="2.0157702"
     inkscape:cx="220.2632"
     inkscape:cy="176.11134"
     inkscape:current-layer="pig"
     showgrid="false"
     showguides="false" /><defs
     id="defs1"><linearGradient
   id="_Linear1"
   gradientTransform="matrix(40,0,0,-40,4,39.5)"
   gradientUnits="userSpaceOnUse"
   x1="0"
   x2="1"
   xlink:href="#lg1"
   y1="0"
   y2="0" /><linearGradient
   id="lg1"><stop
     offset="0"
     stop-color="#4481eb"
     id="stop1659" /><stop
     offset="1"
     stop-color="#04bdfd"
     id="stop1661" /></linearGradient><linearGradient
   id="_Linear2"
   gradientTransform="matrix(67.124531,0,0,-41.07123,0.100275,16.307695)"
   gradientUnits="userSpaceOnUse"
   x1="0"
   x2="1"
   y1="0"
   y2="0"><stop
     offset="0"
     stop-color="#a0c4fc"
     id="stop1665" /><stop
     offset="1"
     stop-color="#c2e9fa"
     id="stop1667" /></linearGradient><linearGradient
   id="_Linear3"
   gradientTransform="matrix(4,0,0,-4,22,8)"
   gradientUnits="userSpaceOnUse"
   x1="0"
   x2="1"
   xlink:href="#lg1"
   y1="0"
   y2="0" /><linearGradient
   id="_Linear4"
   gradientTransform="matrix(4,0,0,-4,39,13)"
   gradientUnits="userSpaceOnUse"
   x1="0"
   x2="1"
   xlink:href="#lg1"
   y1="0"
   y2="0" /><linearGradient
   id="_Linear5"
   gradientTransform="matrix(4,0,0,-4,5,13)"
   gradientUnits="userSpaceOnUse"
   x1="0"
   x2="1"
   xlink:href="#lg1"
   y1="0"
   y2="0" /><linearGradient
   id="_Linear6"
   gradientTransform="matrix(6,0,0,-6,21,21)"
   gradientUnits="userSpaceOnUse"
   x1="0"
   x2="1"
   xlink:href="#lg1"
   y1="0"
   y2="0" /><linearGradient
   id="_Linear7"
   gradientTransform="matrix(4,0,0,-4,12,29)"
   gradientUnits="userSpaceOnUse"
   x1="0"
   x2="1"
   xlink:href="#lg1"
   y1="0"
   y2="0" /><linearGradient
   id="_Linear8"
   gradientTransform="matrix(4,0,0,-4,32,29)"
   gradientUnits="userSpaceOnUse"
   x1="0"
   x2="1"
   xlink:href="#lg1"
   y1="0"
   y2="0" /><linearGradient
   id="_Linear9"
   gradientTransform="matrix(4,0,0,-4,22,31)"
   gradientUnits="userSpaceOnUse"
   x1="0"
   x2="1"
   xlink:href="#lg1"
   y1="0"
   y2="0" />









	
	
	
	
	
	
	
	
	
	
	






<defs
   id="defs21600">
		<rect
   id="SVGID_1_"
   width="600"
   height="600"
   x="0"
   y="0" />
	</defs><clipPath
   clipPathUnits="userSpaceOnUse"
   id="clipPath23532"><g
     id="g23536"><use
       xlink:href="#SVGID_1_"
       overflow="visible"
       id="use23534" /></g></clipPath><rect
   id="rect61"
   width="600"
   height="600"
   x="0"
   y="0" /></defs><g
     id="pig"
     transform="matrix(1.1550966,0,0,1.1550966,90.593106,51.212955)"><g
       id="leg-4"
       transform="translate(-0.49123,-8.151347)"><path
         d="m 87.29198,122.36467 0.08684,-30.970088 c 4.784144,0 5.916969,0.09168 11.169661,0.09168 v 30.878408 z"
         fill="#ffc4c8"
         id="path2"
         style="stroke-width:0.271389" /><path
         d="m 98.54848,116.27917 h -11.2565 v 6.0855 h 11.2565 z"
         fill="#fe99a0"
         id="path20"
         style="stroke-width:0.25" /><path
         d="m 98.54848,116.27917 h -5.0755 v 6.0855 h 5.0755 z"
         fill="#fd8087"
         id="path21"
         style="stroke-width:0.25" /></g><g
       id="leg-2"
       transform="translate(-0.49123,-8.151347)"><path
         d="M 31.060055,122.36467 V 95.378011 c 3.01625,1.413254 6.14175,2.127547 9.33575,2.127547 h 1.921 v 24.859112 z"
         fill="#ffc4c8"
         id="path4"
         style="stroke-width:0.313495" /><path
         d="m 42.294207,116.27917 h -11.2565 v 6.0855 h 11.2565 z"
         fill="#fe99a0"
         id="path22"
         style="stroke-width:0.25" /><path
         d="m 42.294207,116.27917 h -5.0755 v 6.0855 h 5.0755 z"
         fill="#fd8087"
         id="path23"
         style="stroke-width:0.25" /></g><g
       id="bacon-3"
       transform="matrix(7.259254e-4,-0.06621,0.06621,7.259254e-4,-18.012377,109.31577)"
       class="bacon"
       opacity="0"><path
         d="m 516.91415,896.11807 c 0,8.33332 -5,15 -11.66666,18.33332 -11.66668,3.33334 -28.33334,1.66668 -40,-3.33332 -18.33334,-6.66668 -35,-16.66668 -55,-13.33334 -15,3.33334 -26.66668,13.33334 -41.66668,15 -18.33332,1.66666 -33.33332,3.33334 -48.33332,-6.66666 -26.66668,-16.66668 -60,-28.33334 -88.33334,-15 -10,5 -16.66666,11.66666 -26.66666,16.66666 -13.33334,6.66666 -30,8.33334 -45,5 -30,-8.33334 -61.666676,-33.33334 -83.33334,-33.33334 -21.666664,0 -36.666664,15 -55,26.66668 -26.6666641,15 -60,11.66666 -88.333336,0 -20,-10 -31.666664,-25 -50.000004,-25 -21.66666,0 -38.33332,23.33332 -49.99999,31.66666 -6.66667,5 -16.66667,0 -16.66667,-8.33334 V 711.11807 c 0,-6.66668 1.66667,-13.33334 6.66667,-20 11.66666,-15 29.99999,-26.66668 49.99999,-25 21.66668,1.66666 38.33334,6.66666 58.33334,16.66666 28.333336,13.33334 60,21.66666 85,6.66666 18.333336,-10 38.333336,-18.33332 60,-21.66666 30,-3.33334 53.33334,23.33334 83.33334,31.66666 15,5 31.66666,1.66668 45,-5 8.33332,-5 16.66666,-11.66666 26.66666,-16.66666 28.33334,-13.33334 61.66666,-1.66666 88.33334,15 15,10 30,6.66666 48.33332,5 15,-1.66666 26.66668,-11.66666 41.66668,-15 18.33332,-3.33334 36.66666,6.66666 55,13.33334 11.66666,5 28.33332,6.66666 40,3.33332 6.66666,-1.66666 13.33332,3.33334 13.33332,10 z"
         fill="#ff5722"
         id="path2-2-8"
         style="stroke-width:0.78125" /><path
         d="m 515.24749,857.78473 c 0,0 1.66666,0 0,0 l 1.66666,-56.66666 c -6.66666,5 -13.33334,8.33332 -15,8.33332 -3.33334,0 -6.66666,1.66668 -10,3.33334 h -5 c -3.33334,0 -6.66666,0 -10,-1.66666 -6.66666,-1.66668 -11.66666,-5 -20,-6.66668 -6.66666,-3.33332 -16.66666,-5 -26.66666,-6.66666 -10,-1.66666 -21.66668,-1.66666 -33.33334,1.66666 -5,1.66668 -11.66666,3.33334 -16.66666,6.66668 -3.33334,1.66666 -8.33334,3.33332 -11.66668,6.66666 -6.66666,3.33334 -13.33332,5 -21.66666,5 h -10 c -3.33334,0 -6.66666,-1.66666 -11.66666,-5 -8.33334,-5 -21.66668,-11.66666 -33.33334,-15 -23.33334,-6.66666 -53.33334,-8.33334 -78.33334,6.66666 -10,6.66668 -18.33332,13.33334 -28.33332,20 -6.66668,3.33334 -16.66668,5 -23.33334,1.66668 -18.33334,-6.66668 -38.33334,-25 -63.333336,-30 -13.333328,-3.33334 -26.666664,-1.66668 -40,1.66666 -11.666664,5 -21.666664,11.66666 -31.666664,18.33334 l -6.666664,5 -6.666672,5 -6.666664,5 -1.6666641,1.66666 H 3.5808141 c -1.6666641,0 -1.6666641,1.66666 -3.33332816,1.66666 -8.33333594,3.33334 -18.33333594,5 -26.66667194,5 -10,0 -18.333328,-1.66666 -26.666664,-5 -8.333336,-3.33332 -16.666664,-6.66666 -25,-11.66666 -15,-8.33334 -31.66666,-15 -45,-16.66666 -15,-1.66668 -28.33334,0 -36.66667,5 -10,3.33332 -16.66666,8.33332 -20,11.66666 -1.66666,5 -3.33333,6.66666 -3.33333,6.66666 0,0 1.66667,-1.66666 6.66667,-5 5,-3.33332 11.66666,-6.66666 21.66667,-10 10,-3.33332 21.66666,-5 35,-1.66666 13.33332,3.33334 28.333324,10 43.333324,20 8.333336,3.33334 15,10 25,13.33334 10,3.33332 20,6.66666 30,6.66666 10,0 21.66667194,0 33.333336,-5 1.666664,0 3.333336,-1.66666 3.333336,-1.66666 1.666664,0 0,0 1.666664,-1.66668 l 1.666664,-1.66666 6.666672,-5 8.333328,-5 6.666672,-5 c 8.333328,-6.66666 16.666664,-11.66666 26.666664,-15 8.333336,-3.33334 20,-1.66666 28.333336,0 10.000004,3.33334 18.333324,8.33334 28.333324,15 10,6.66666 18.33334,13.33334 31.66668,20 13.33332,6.66666 30,6.66666 45,0 l 3.33332,-1.66666 h 3.33334 l 3.33334,-1.66668 6.66666,-5 13.33334,-8.33332 c 16.66666,-8.33334 36.66666,-6.66668 55,0 10,3.33332 15,6.66666 25,13.33332 5,3.33334 10,6.66668 16.66666,8.33334 8.33334,3.33334 13.33334,3.33334 20,3.33334 13.33334,0 25,-1.66668 36.66666,-6.66668 5,-1.66666 8.33334,-3.33332 13.33334,-5 3.33334,-1.66666 6.66666,-1.66666 10,-3.33332 11.66666,-1.66668 21.66666,1.66666 33.33334,6.66666 6.66666,3.33334 11.66666,5 18.33332,8.33334 8.33334,3.33332 15,5 23.33334,6.66666 6.66666,1.66666 15,0 21.66666,-1.66666 5,-1.66668 8.33334,-3.33334 11.66668,-3.33334 z M -163.08585,724.45139 c -8.33333,1.66668 -15,5 -20,8.33334 v 65 c 10,-8.33334 20,-18.33334 21.66667,-20 3.33333,-1.66666 8.33333,-5 13.33333,-8.33334 6.66666,-3.33332 15,-5 25,-3.33332 10,1.66666 21.66666,6.66666 38.333336,15 3.333328,1.66666 8.333328,3.33332 11.666664,6.66666 l 3.333336,1.66666 3.333328,1.66668 h 1.666672 c 1.666664,0 5,1.66666 8.333328,3.33332 11.666672,3.33334 23.333336,6.66668 35,6.66668 11.6666719,0 25.0000001,-1.66668 38.333336,-8.33334 13.333336,-6.66666 21.666664,-15 30,-21.66666 8.333336,-6.66668 15,-11.66668 23.333336,-15 1.666664,0 3.333328,-1.66668 6.666664,-1.66668 h 6.666664 c 3.333336,0 8.333336,0 11.666672,1.66668 8.333324,1.66666 18.333324,6.66666 28.333324,11.66666 10,5 20,13.33334 33.33334,18.33334 13.33334,5 30,5 43.33334,-1.66668 13.33332,-6.66666 20,-15 30,-20 16.66666,-10 38.33332,-10 58.33332,-5 18.33334,5 38.33334,18.33334 61.66668,20 11.66666,0 21.66666,-1.66666 31.66666,-6.66666 10,-5 16.66666,-8.33334 25,-10 15,-5 31.66666,0 45,3.33334 13.33334,5 25,10 36.66666,11.66666 5,0 10,0 15,-1.66666 3.33334,-1.66668 6.66668,-3.33334 10,-3.33334 5,-1.66666 8.33334,-3.33334 8.33334,-3.33334 0,0 -3.33334,0 -8.33334,1.66668 -5,0 -13.33332,3.33332 -23.33332,1.66666 -10,0 -20,-6.66666 -33.33334,-13.33334 -13.33334,-5 -30,-11.66666 -50,-6.66666 -10,1.66666 -18.33334,6.66666 -26.66666,10 -8.33334,3.33334 -16.66668,5 -25,3.33334 -8.33334,-1.66668 -18.33334,-5 -26.66668,-10 -8.33332,-5 -20,-10 -30,-13.33334 -21.66666,-6.66666 -50,-10 -73.33332,1.66666 -11.66668,5 -21.66668,15 -28.33334,16.66668 -8.33334,3.33332 -16.66666,3.33332 -25,-1.66668 -16.66666,-8.33332 -35,-26.66666 -63.33334,-35 -6.66666,-1.66666 -13.333324,-3.33332 -21.66666,-3.33332 H 75.247486 c -3.333336,0 -6.666672,1.66666 -10,1.66666 -13.333336,5 -25,11.66666 -35,18.33334 -10,6.66666 -16.666672,13.33332 -23.333336,15 -6.66666406,3.33332 -15,3.33332 -21.666664,3.33332 -8.333336,0 -15,-3.33332 -21.666672,-5 -1.666664,0 -3.333328,-1.66666 -5,-1.66666 h -1.666664 c 1.666664,1.66666 0,0 1.666664,0 l -11.666664,-3.33334 c -3.333336,-1.66666 -8.333336,-5 -11.666664,-6.66666 -13.333336,-8.33334 -31.666672,-18.33334 -49.999996,-21.66666 -18.33334,-5 -36.66668,-1.66668 -48.33334,3.33332 z"
         fill="#fff3e0"
         id="path3-0"
         style="stroke-width:0.78125"
         sodipodi:nodetypes="cccscsccscccsscsccccccccccscsscccccssscssccsccccccsscccccccscscccccccccccccsscccscssscsscssscccsccccccccccssscccccsscscscscccccc" /></g><path
       d="m 11.54375,21.92307 h 9.239 c 1.03575,0 1.875,0.8395 1.875,1.875 0,1.0355 -0.83925,1.875 -1.875,1.875 h -9.239 c -4.2975,0 -7.79375,3.49625 -7.79375,7.79375 0,4.2975 3.49625,7.79375 7.79375,7.79375 h 6.3015 c -1.24775,1.159 -2.407,2.41225 -3.46375,3.75 H 11.54375 C 5.1785,45.01057 0,39.83207 0,33.46682 0,27.10157 5.1785,21.92307 11.54375,21.92307 Z"
       fill="#fd8087"
       id="tail"
       style="stroke-width:0.25" /><g
       id="leg-1"
       transform="translate(-0.49123,-8.151347)"><path
         d="m 23.77748,116.27917 h -11.2565 v 6.0855 h 11.2565 z"
         fill="#ffc4c8"
         id="path26"
         style="stroke-width:0.25" /><path
         d="m 23.77748,116.27917 h -5.0755 v 6.0855 h 5.0755 z"
         fill="#fdb4ba"
         id="path27"
         style="stroke-width:0.25" /><path
         id="rect28"
         style="fill:#f3626c;stroke-width:1.58136"
         d="M 12.591587,91.853226 H 23.793758 V 116.18996 H 12.591587 Z" /></g><g
       id="bacon-2"
       transform="matrix(7.259254e-4,-0.06621,0.06621,7.259254e-4,40.094824,116.55016)"
       class="bacon"
       opacity="0"><path
         d="m 516.91415,896.11807 c 0,8.33332 -5,15 -11.66666,18.33332 -11.66668,3.33334 -28.33334,1.66668 -40,-3.33332 -18.33334,-6.66668 -35,-16.66668 -55,-13.33334 -15,3.33334 -26.66668,13.33334 -41.66668,15 -18.33332,1.66666 -33.33332,3.33334 -48.33332,-6.66666 -26.66668,-16.66668 -60,-28.33334 -88.33334,-15 -10,5 -16.66666,11.66666 -26.66666,16.66666 -13.33334,6.66666 -30,8.33334 -45,5 -30,-8.33334 -61.666676,-33.33334 -83.33334,-33.33334 -21.666664,0 -36.666664,15 -55,26.66668 -26.6666641,15 -60,11.66666 -88.333336,0 -20,-10 -31.666664,-25 -50.000004,-25 -21.66666,0 -38.33332,23.33332 -49.99999,31.66666 -6.66667,5 -16.66667,0 -16.66667,-8.33334 V 711.11807 c 0,-6.66668 1.66667,-13.33334 6.66667,-20 11.66666,-15 29.99999,-26.66668 49.99999,-25 21.66668,1.66666 38.33334,6.66666 58.33334,16.66666 28.333336,13.33334 60,21.66666 85,6.66666 18.333336,-10 38.333336,-18.33332 60,-21.66666 30,-3.33334 53.33334,23.33334 83.33334,31.66666 15,5 31.66666,1.66668 45,-5 8.33332,-5 16.66666,-11.66666 26.66666,-16.66666 28.33334,-13.33334 61.66666,-1.66666 88.33334,15 15,10 30,6.66666 48.33332,5 15,-1.66666 26.66668,-11.66666 41.66668,-15 18.33332,-3.33334 36.66666,6.66666 55,13.33334 11.66666,5 28.33332,6.66666 40,3.33332 6.66666,-1.66666 13.33332,3.33334 13.33332,10 z"
         fill="#ff5722"
         id="path2-2-6"
         style="stroke-width:0.78125" /><path
         d="m 515.24749,857.78473 c 0,0 1.66666,0 0,0 l 1.66666,-56.66666 c -6.66666,5 -13.33334,8.33332 -15,8.33332 -3.33334,0 -6.66666,1.66668 -10,3.33334 h -5 c -3.33334,0 -6.66666,0 -10,-1.66666 -6.66666,-1.66668 -11.66666,-5 -20,-6.66668 -6.66666,-3.33332 -16.66666,-5 -26.66666,-6.66666 -10,-1.66666 -21.66668,-1.66666 -33.33334,1.66666 -5,1.66668 -11.66666,3.33334 -16.66666,6.66668 -3.33334,1.66666 -8.33334,3.33332 -11.66668,6.66666 -6.66666,3.33334 -13.33332,5 -21.66666,5 h -10 c -3.33334,0 -6.66666,-1.66666 -11.66666,-5 -8.33334,-5 -21.66668,-11.66666 -33.33334,-15 -23.33334,-6.66666 -53.33334,-8.33334 -78.33334,6.66666 -10,6.66668 -18.33332,13.33334 -28.33332,20 -6.66668,3.33334 -16.66668,5 -23.33334,1.66668 -18.33334,-6.66668 -38.33334,-25 -63.333336,-30 -13.333328,-3.33334 -26.666664,-1.66668 -40,1.66666 -11.666664,5 -21.666664,11.66666 -31.666664,18.33334 l -6.666664,5 -6.666672,5 -6.666664,5 -1.6666641,1.66666 H 3.5808141 c -1.6666641,0 -1.6666641,1.66666 -3.33332816,1.66666 -8.33333594,3.33334 -18.33333594,5 -26.66667194,5 -10,0 -18.333328,-1.66666 -26.666664,-5 -8.333336,-3.33332 -16.666664,-6.66666 -25,-11.66666 -15,-8.33334 -31.66666,-15 -45,-16.66666 -15,-1.66668 -28.33334,0 -36.66667,5 -10,3.33332 -16.66666,8.33332 -20,11.66666 -1.66666,5 -3.33333,6.66666 -3.33333,6.66666 0,0 1.66667,-1.66666 6.66667,-5 5,-3.33332 11.66666,-6.66666 21.66667,-10 10,-3.33332 21.66666,-5 35,-1.66666 13.33332,3.33334 28.333324,10 43.333324,20 8.333336,3.33334 15,10 25,13.33334 10,3.33332 20,6.66666 30,6.66666 10,0 21.66667194,0 33.333336,-5 1.666664,0 3.333336,-1.66666 3.333336,-1.66666 1.666664,0 0,0 1.666664,-1.66668 l 1.666664,-1.66666 6.666672,-5 8.333328,-5 6.666672,-5 c 8.333328,-6.66666 16.666664,-11.66666 26.666664,-15 8.333336,-3.33334 20,-1.66666 28.333336,0 10.000004,3.33334 18.333324,8.33334 28.333324,15 10,6.66666 18.33334,13.33334 31.66668,20 13.33332,6.66666 30,6.66666 45,0 l 3.33332,-1.66666 h 3.33334 l 3.33334,-1.66668 6.66666,-5 13.33334,-8.33332 c 16.66666,-8.33334 36.66666,-6.66668 55,0 10,3.33332 15,6.66666 25,13.33332 5,3.33334 10,6.66668 16.66666,8.33334 8.33334,3.33334 13.33334,3.33334 20,3.33334 13.33334,0 25,-1.66668 36.66666,-6.66668 5,-1.66666 8.33334,-3.33332 13.33334,-5 3.33334,-1.66666 6.66666,-1.66666 10,-3.33332 11.66666,-1.66668 21.66666,1.66666 33.33334,6.66666 6.66666,3.33334 11.66666,5 18.33332,8.33334 8.33334,3.33332 15,5 23.33334,6.66666 6.66666,1.66666 15,0 21.66666,-1.66666 5,-1.66668 8.33334,-3.33334 11.66668,-3.33334 z M -163.08585,724.45139 c -8.33333,1.66668 -15,5 -20,8.33334 v 65 c 10,-8.33334 20,-18.33334 21.66667,-20 3.33333,-1.66666 8.33333,-5 13.33333,-8.33334 6.66666,-3.33332 15,-5 25,-3.33332 10,1.66666 21.66666,6.66666 38.333336,15 3.333328,1.66666 8.333328,3.33332 11.666664,6.66666 l 3.333336,1.66666 3.333328,1.66668 h 1.666672 c 1.666664,0 5,1.66666 8.333328,3.33332 11.666672,3.33334 23.333336,6.66668 35,6.66668 11.6666719,0 25.0000001,-1.66668 38.333336,-8.33334 13.333336,-6.66666 21.666664,-15 30,-21.66666 8.333336,-6.66668 15,-11.66668 23.333336,-15 1.666664,0 3.333328,-1.66668 6.666664,-1.66668 h 6.666664 c 3.333336,0 8.333336,0 11.666672,1.66668 8.333324,1.66666 18.333324,6.66666 28.333324,11.66666 10,5 20,13.33334 33.33334,18.33334 13.33334,5 30,5 43.33334,-1.66668 13.33332,-6.66666 20,-15 30,-20 16.66666,-10 38.33332,-10 58.33332,-5 18.33334,5 38.33334,18.33334 61.66668,20 11.66666,0 21.66666,-1.66666 31.66666,-6.66666 10,-5 16.66666,-8.33334 25,-10 15,-5 31.66666,0 45,3.33334 13.33334,5 25,10 36.66666,11.66666 5,0 10,0 15,-1.66666 3.33334,-1.66668 6.66668,-3.33334 10,-3.33334 5,-1.66666 8.33334,-3.33334 8.33334,-3.33334 0,0 -3.33334,0 -8.33334,1.66668 -5,0 -13.33332,3.33332 -23.33332,1.66666 -10,0 -20,-6.66666 -33.33334,-13.33334 -13.33334,-5 -30,-11.66666 -50,-6.66666 -10,1.66666 -18.33334,6.66666 -26.66666,10 -8.33334,3.33334 -16.66668,5 -25,3.33334 -8.33334,-1.66668 -18.33334,-5 -26.66668,-10 -8.33332,-5 -20,-10 -30,-13.33334 -21.66666,-6.66666 -50,-10 -73.33332,1.66666 -11.66668,5 -21.66668,15 -28.33334,16.66668 -8.33334,3.33332 -16.66666,3.33332 -25,-1.66668 -16.66666,-8.33332 -35,-26.66666 -63.33334,-35 -6.66666,-1.66666 -13.333324,-3.33332 -21.66666,-3.33332 H 75.247486 c -3.333336,0 -6.666672,1.66666 -10,1.66666 -13.333336,5 -25,11.66666 -35,18.33334 -10,6.66666 -16.666672,13.33332 -23.333336,15 -6.66666406,3.33332 -15,3.33332 -21.666664,3.33332 -8.333336,0 -15,-3.33332 -21.666672,-5 -1.666664,0 -3.333328,-1.66666 -5,-1.66666 h -1.666664 c 1.666664,1.66666 0,0 1.666664,0 l -11.666664,-3.33334 c -3.333336,-1.66666 -8.333336,-5 -11.666664,-6.66666 -13.333336,-8.33334 -31.666672,-18.33334 -49.999996,-21.66666 -18.33334,-5 -36.66668,-1.66668 -48.33334,3.33332 z"
         fill="#fff3e0"
         id="path3-7"
         style="stroke-width:0.78125"
         sodipodi:nodetypes="cccscsccscccsscsccccccccccscsscccccssscssccsccccccsscccccccscscccccccccccccsscccscssscsscssscccsccccccccccssscccccsscscscscccccc" /></g><path
       id="body"
       style="fill:#f3626c;fill-opacity:1;stroke-width:0.25"
       d="m 40.272442,32.188497 c -18.278232,0 -33.232422,14.95419 -33.232422,33.232422 0,10.344392 2.990115,15.925701 4.865234,18.212891 0.154793,0.11342 -8.3835709,-5.94071 0.251954,0.19727 11.754938,8.35519 13.318564,14.6387 28.115235,14.82419 h 25.083984 c 16.780792,0.47893 31.20464,-3.8824 39.191403,-20.00195 -2.98799,0.539 -6.154594,0.83008 -9.43359,0.83008 -17.994982,0 -32.634766,-8.729996 -32.634766,-19.458986 0,-3.180997 1.322268,-6.339065 3.822266,-9.132812 0.565749,-0.6325 0.912656,-1.428939 1.003906,-2.304688 0.29175,-2.798497 1.002079,-5.526221 2.111328,-8.105469 l 0.01953,-0.04687 v -8.246094 z" /><g
       id="head"
       transform="translate(-0.49123,-8.151347)"><path
         d="m 76.83148,38.948917 c -3.1575,2.863 -5.5875,6.3675 -7.153,10.23825 v -18.4965 c 0,-1.51 1.3115,-2.68425 2.813,-2.5245 5.574,0.59275 9.59725,2.91975 12.46275,5.6455 -2.957,1.21825 -5.70675,2.947 -8.12275,5.13725 z"
         fill="#fdb4ba"
         id="path8"
         style="stroke-width:0.25" /><path
         d="m 80.12248,36.385917 c -2.5945,-2.144 -6.001,-3.9095 -10.444,-4.551 v -1.14425 c 0,-1.51 1.3115,-2.68425 2.813,-2.5245 5.574,0.59275 9.59725,2.91975 12.46275,5.6455 -1.686,0.69475 -3.30375,1.55675 -4.83175,2.57425 z"
         fill="#fe99a0"
         id="path9"
         style="stroke-width:0.25" /><path
         d="m 114.38073,38.948917 c -2.41575,-2.1905 -5.16575,-3.919 -8.12275,-5.13725 2.8655,-2.72575 6.88875,-5.05275 12.46275,-5.6455 1.5015,-0.15975 2.813,1.0145 2.813,2.5245 v 18.4965 c -1.5655,-3.87075 -3.9955,-7.37525 -7.153,-10.23825 z"
         fill="#fe99a0"
         id="path10"
         style="stroke-width:0.25" /><path
         d="m 116.45848,41.043417 v -10.35275 c 0,-0.797 -0.3675,-1.49775 -0.93325,-1.961 1.0045,-0.251 2.06725,-0.44375 3.1955,-0.56375 1.5015,-0.15975 2.813,1.0145 2.813,2.5245 v 18.4965 c -1.20225,-2.97225 -2.915,-5.728 -5.07525,-8.1435 z"
         fill="#fd8087"
         id="path11"
         style="stroke-width:0.25" /><path
         d="m 66.60648,58.876667 c 0.538,-0.60125 0.8585,-1.362 0.942,-2.16425 1.479,-14.19075 13.4755,-25.25425 28.05775,-25.25425 14.58225,0 26.5785,11.0635 28.05775,25.25425 0.0838,0.80225 0.40425,1.563 0.942,2.16425 2.47875,2.77025 3.88525,5.9365 3.88525,9.29975 0,10.88425 -14.72325,19.70775 -32.885,19.70775 -18.162,0 -32.885,-8.8235 -32.885,-19.70775 0,-3.36325 1.40625,-6.5295 3.88525,-9.29975 z"
         fill="#ffc4c8"
         id="path12"
         style="stroke-width:0.25" /><path
         d="m 120.87798,68.176417 c 0,-3.36325 -1.4065,-6.5295 -3.88525,-9.29975 -0.538,-0.60125 -0.8585,-1.362 -0.942,-2.16425 -1.348,-12.93425 -11.43425,-23.26875 -24.251,-24.99775 1.24525,-0.168 2.5155,-0.25625 3.8065,-0.25625 14.58225,0 26.57875,11.0635 28.05775,25.25425 0.0838,0.80225 0.40425,1.563 0.942,2.16425 2.47875,2.77 3.88525,5.93625 3.88525,9.2995 0,10.88425 -14.72325,19.70775 -32.885,19.70775 -1.28775,0 -2.5575,-0.046 -3.8065,-0.13225 16.36825,-1.131 29.07825,-9.463 29.07825,-19.5755 z"
         fill="#fdb4ba"
         id="path13"
         style="stroke-width:0.25" /><g
         id="snout"><path
           d="m 89.90048,77.411417 h 11.4115 c 3.85,0 7,-3.15 7,-7 v -0.8635 c 0,-3.85 -3.15,-7 -7,-7 h -11.4115 c -3.85,0 -7,3.15 -7,7 v 0.8635 c 0,3.85 3.15,7 7,7 z"
           fill="#fe99a0"
           id="path14"
           style="stroke-width:0.25" /><path
           d="m 103.23648,70.305917 v -0.652 c 0,-3.908 -3.1975,-7.10575 -7.10575,-7.10575 h 5.0755 c 3.908,0 7.10575,3.1975 7.10575,7.10575 v 0.652 c 0,3.908 -3.1975,7.10575 -7.10575,7.10575 h -5.0755 c 3.90825,-2.5e-4 7.10575,-3.19775 7.10575,-7.10575 z"
           fill="#fd8087"
           id="path15"
           style="stroke-width:0.25" /><path
           d="m 99.90348,72.869417 c 1.03575,0 1.875,-0.8395 1.875,-1.875 v -2.292 c 0,-1.0355 -0.83925,-1.875 -1.875,-1.875 -1.03575,0 -1.875,0.8395 -1.875,1.875 v 2.292 c 0,1.0355 0.8395,1.875 1.875,1.875 z"
           fill="#ffc4c8"
           id="path16"
           style="stroke-width:0.25" /><path
           d="m 91.30898,72.869417 c 1.03575,0 1.875,-0.8395 1.875,-1.875 v -2.292 c 0,-1.0355 -0.83925,-1.875 -1.875,-1.875 -1.03575,0 -1.875,0.8395 -1.875,1.875 v 2.292 c 0,1.0355 0.83925,1.875 1.875,1.875 z"
           fill="#ffc4c8"
           id="path17"
           style="stroke-width:0.25" /></g><path
         id="left-eye"
         style="fill:#ffffff;stroke-width:2"
         d="m 93.33426,50.842606 a 6.5088363,7.1228776 0 0 1 -6.508836,7.122877 6.5088363,7.1228776 0 0 1 -6.508836,-7.122877 6.5088363,7.1228776 0 0 1 6.508836,-7.122878 6.5088363,7.1228776 0 0 1 6.508836,7.122878 z" /><path
         id="right-eye"
         style="fill:#ffffff;stroke-width:2"
         d="m 110.93014,51.087811 a 6.5088363,7.1228776 0 0 1 -6.50884,7.122877 6.5088363,7.1228776 0 0 1 -6.508833,-7.122877 6.5088363,7.1228776 0 0 1 6.508833,-7.122878 6.5088363,7.1228776 0 0 1 6.50884,7.122878 z" /><path
         id="right-pupil"
         style="stroke-width:0.754717"
         d="m 106.96492,52.98624 a 2.4561646,2.6878784 0 0 1 -2.45617,2.687879 2.4561646,2.6878784 0 0 1 -2.45616,-2.687879 2.4561646,2.6878784 0 0 1 2.45616,-2.687878 2.4561646,2.6878784 0 0 1 2.45617,2.687878 z" /><path
         id="left-pupil"
         style="stroke-width:0.754717"
         d="m 89.543697,52.793083 a 2.4561646,2.6878784 0 0 1 -2.456165,2.687879 2.4561646,2.6878784 0 0 1 -2.456165,-2.687879 2.4561646,2.6878784 0 0 1 2.456165,-2.687878 2.4561646,2.6878784 0 0 1 2.456165,2.687878 z" /></g><g
       id="leg-3"
       transform="translate(-0.49123,-8.151347)"><path
         d="m 79.64098,116.27917 h -11.2565 v 6.0855 h 11.2565 z"
         fill="#ffc4c8"
         id="path24"
         style="stroke-width:0.25" /><path
         d="m 79.64098,116.27917 h -5.0755 v 6.0855 h 5.0755 z"
         fill="#fdb4ba"
         id="path25"
         style="stroke-width:0.25" /><path
         id="rect28-3"
         style="fill:#f3626c;stroke-width:1.58568"
         d="M 68.37516,92.173676 H 79.638736 V 116.51041 H 68.37516 Z" /></g><g
       id="bacon-1"
       transform="matrix(7.259254e-4,-0.06621,0.06621,7.259254e-4,-38.532827,107.70406)"
       class="bacon"
       opacity="0"><path
         d="m 516.91415,896.11807 c 0,8.33332 -5,15 -11.66666,18.33332 -11.66668,3.33334 -28.33334,1.66668 -40,-3.33332 -18.33334,-6.66668 -35,-16.66668 -55,-13.33334 -15,3.33334 -26.66668,13.33334 -41.66668,15 -18.33332,1.66666 -33.33332,3.33334 -48.33332,-6.66666 -26.66668,-16.66668 -60,-28.33334 -88.33334,-15 -10,5 -16.66666,11.66666 -26.66666,16.66666 -13.33334,6.66666 -30,8.33334 -45,5 -30,-8.33334 -61.666676,-33.33334 -83.33334,-33.33334 -21.666664,0 -36.666664,15 -55,26.66668 -26.6666641,15 -60,11.66666 -88.333336,0 -20,-10 -31.666664,-25 -50.000004,-25 -21.66666,0 -38.33332,23.33332 -49.99999,31.66666 -6.66667,5 -16.66667,0 -16.66667,-8.33334 V 711.11807 c 0,-6.66668 1.66667,-13.33334 6.66667,-20 11.66666,-15 29.99999,-26.66668 49.99999,-25 21.66668,1.66666 38.33334,6.66666 58.33334,16.66666 28.333336,13.33334 60,21.66666 85,6.66666 18.333336,-10 38.333336,-18.33332 60,-21.66666 30,-3.33334 53.33334,23.33334 83.33334,31.66666 15,5 31.66666,1.66668 45,-5 8.33332,-5 16.66666,-11.66666 26.66666,-16.66666 28.33334,-13.33334 61.66666,-1.66666 88.33334,15 15,10 30,6.66666 48.33332,5 15,-1.66666 26.66668,-11.66666 41.66668,-15 18.33332,-3.33334 36.66666,6.66666 55,13.33334 11.66666,5 28.33332,6.66666 40,3.33332 6.66666,-1.66666 13.33332,3.33334 13.33332,10 z"
         fill="#ff5722"
         id="path2-2"
         style="stroke-width:0.78125" /><path
         d="m 515.24749,857.78473 c 0,0 1.66666,0 0,0 l 1.66666,-56.66666 c -6.66666,5 -13.33334,8.33332 -15,8.33332 -3.33334,0 -6.66666,1.66668 -10,3.33334 h -5 c -3.33334,0 -6.66666,0 -10,-1.66666 -6.66666,-1.66668 -11.66666,-5 -20,-6.66668 -6.66666,-3.33332 -16.66666,-5 -26.66666,-6.66666 -10,-1.66666 -21.66668,-1.66666 -33.33334,1.66666 -5,1.66668 -11.66666,3.33334 -16.66666,6.66668 -3.33334,1.66666 -8.33334,3.33332 -11.66668,6.66666 -6.66666,3.33334 -13.33332,5 -21.66666,5 h -10 c -3.33334,0 -6.66666,-1.66666 -11.66666,-5 -8.33334,-5 -21.66668,-11.66666 -33.33334,-15 -23.33334,-6.66666 -53.33334,-8.33334 -78.33334,6.66666 -10,6.66668 -18.33332,13.33334 -28.33332,20 -6.66668,3.33334 -16.66668,5 -23.33334,1.66668 -18.33334,-6.66668 -38.33334,-25 -63.333336,-30 -13.333328,-3.33334 -26.666664,-1.66668 -40,1.66666 -11.666664,5 -21.666664,11.66666 -31.666664,18.33334 l -6.666664,5 -6.666672,5 -6.666664,5 -1.6666641,1.66666 H 3.5808141 c -1.6666641,0 -1.6666641,1.66666 -3.33332816,1.66666 -8.33333594,3.33334 -18.33333594,5 -26.66667194,5 -10,0 -18.333328,-1.66666 -26.666664,-5 -8.333336,-3.33332 -16.666664,-6.66666 -25,-11.66666 -15,-8.33334 -31.66666,-15 -45,-16.66666 -15,-1.66668 -28.33334,0 -36.66667,5 -10,3.33332 -16.66666,8.33332 -20,11.66666 -1.66666,5 -3.33333,6.66666 -3.33333,6.66666 0,0 1.66667,-1.66666 6.66667,-5 5,-3.33332 11.66666,-6.66666 21.66667,-10 10,-3.33332 21.66666,-5 35,-1.66666 13.33332,3.33334 28.333324,10 43.333324,20 8.333336,3.33334 15,10 25,13.33334 10,3.33332 20,6.66666 30,6.66666 10,0 21.66667194,0 33.333336,-5 1.666664,0 3.333336,-1.66666 3.333336,-1.66666 1.666664,0 0,0 1.666664,-1.66668 l 1.666664,-1.66666 6.666672,-5 8.333328,-5 6.666672,-5 c 8.333328,-6.66666 16.666664,-11.66666 26.666664,-15 8.333336,-3.33334 20,-1.66666 28.333336,0 10.000004,3.33334 18.333324,8.33334 28.333324,15 10,6.66666 18.33334,13.33334 31.66668,20 13.33332,6.66666 30,6.66666 45,0 l 3.33332,-1.66666 h 3.33334 l 3.33334,-1.66668 6.66666,-5 13.33334,-8.33332 c 16.66666,-8.33334 36.66666,-6.66668 55,0 10,3.33332 15,6.66666 25,13.33332 5,3.33334 10,6.66668 16.66666,8.33334 8.33334,3.33334 13.33334,3.33334 20,3.33334 13.33334,0 25,-1.66668 36.66666,-6.66668 5,-1.66666 8.33334,-3.33332 13.33334,-5 3.33334,-1.66666 6.66666,-1.66666 10,-3.33332 11.66666,-1.66668 21.66666,1.66666 33.33334,6.66666 6.66666,3.33334 11.66666,5 18.33332,8.33334 8.33334,3.33332 15,5 23.33334,6.66666 6.66666,1.66666 15,0 21.66666,-1.66666 5,-1.66668 8.33334,-3.33334 11.66668,-3.33334 z M -163.08585,724.45139 c -8.33333,1.66668 -15,5 -20,8.33334 v 65 c 10,-8.33334 20,-18.33334 21.66667,-20 3.33333,-1.66666 8.33333,-5 13.33333,-8.33334 6.66666,-3.33332 15,-5 25,-3.33332 10,1.66666 21.66666,6.66666 38.333336,15 3.333328,1.66666 8.333328,3.33332 11.666664,6.66666 l 3.333336,1.66666 3.333328,1.66668 h 1.666672 c 1.666664,0 5,1.66666 8.333328,3.33332 11.666672,3.33334 23.333336,6.66668 35,6.66668 11.6666719,0 25.0000001,-1.66668 38.333336,-8.33334 13.333336,-6.66666 21.666664,-15 30,-21.66666 8.333336,-6.66668 15,-11.66668 23.333336,-15 1.666664,0 3.333328,-1.66668 6.666664,-1.66668 h 6.666664 c 3.333336,0 8.333336,0 11.666672,1.66668 8.333324,1.66666 18.333324,6.66666 28.333324,11.66666 10,5 20,13.33334 33.33334,18.33334 13.33334,5 30,5 43.33334,-1.66668 13.33332,-6.66666 20,-15 30,-20 16.66666,-10 38.33332,-10 58.33332,-5 18.33334,5 38.33334,18.33334 61.66668,20 11.66666,0 21.66666,-1.66666 31.66666,-6.66666 10,-5 16.66666,-8.33334 25,-10 15,-5 31.66666,0 45,3.33334 13.33334,5 25,10 36.66666,11.66666 5,0 10,0 15,-1.66666 3.33334,-1.66668 6.66668,-3.33334 10,-3.33334 5,-1.66666 8.33334,-3.33334 8.33334,-3.33334 0,0 -3.33334,0 -8.33334,1.66668 -5,0 -13.33332,3.33332 -23.33332,1.66666 -10,0 -20,-6.66666 -33.33334,-13.33334 -13.33334,-5 -30,-11.66666 -50,-6.66666 -10,1.66666 -18.33334,6.66666 -26.66666,10 -8.33334,3.33334 -16.66668,5 -25,3.33334 -8.33334,-1.66668 -18.33334,-5 -26.66668,-10 -8.33332,-5 -20,-10 -30,-13.33334 -21.66666,-6.66666 -50,-10 -73.33332,1.66666 -11.66668,5 -21.66668,15 -28.33334,16.66668 -8.33334,3.33332 -16.66666,3.33332 -25,-1.66668 -16.66666,-8.33332 -35,-26.66666 -63.33334,-35 -6.66666,-1.66666 -13.333324,-3.33332 -21.66666,-3.33332 H 75.247486 c -3.333336,0 -6.666672,1.66666 -10,1.66666 -13.333336,5 -25,11.66666 -35,18.33334 -10,6.66666 -16.666672,13.33332 -23.333336,15 -6.66666406,3.33332 -15,3.33332 -21.666664,3.33332 -8.333336,0 -15,-3.33332 -21.666672,-5 -1.666664,0 -3.333328,-1.66666 -5,-1.66666 h -1.666664 c 1.666664,1.66666 0,0 1.666664,0 l -11.666664,-3.33334 c -3.333336,-1.66666 -8.333336,-5 -11.666664,-6.66666 -13.333336,-8.33334 -31.666672,-18.33334 -49.999996,-21.66666 -18.33334,-5 -36.66668,-1.66668 -48.33334,3.33332 z"
         fill="#fff3e0"
         id="path3"
         style="stroke-width:0.78125"
         sodipodi:nodetypes="cccscsccscccsscsccccccccccscsscccccssscssccsccccccsscccccccscscccccccccccccsscccscssscsscssscccsccccccccccssscccccsscscscscccccc" /></g><g
       id="bacon-4"
       transform="matrix(7.259254e-4,-0.06621,0.06621,7.259254e-4,24.023694,113.20396)"
       class="bacon"
       opacity="0"><path
         d="m 516.91415,896.11807 c 0,8.33332 -5,15 -11.66666,18.33332 -11.66668,3.33334 -28.33334,1.66668 -40,-3.33332 -18.33334,-6.66668 -35,-16.66668 -55,-13.33334 -15,3.33334 -26.66668,13.33334 -41.66668,15 -18.33332,1.66666 -33.33332,3.33334 -48.33332,-6.66666 -26.66668,-16.66668 -60,-28.33334 -88.33334,-15 -10,5 -16.66666,11.66666 -26.66666,16.66666 -13.33334,6.66666 -30,8.33334 -45,5 -30,-8.33334 -61.666676,-33.33334 -83.33334,-33.33334 -21.666664,0 -36.666664,15 -55,26.66668 -26.6666641,15 -60,11.66666 -88.333336,0 -20,-10 -31.666664,-25 -50.000004,-25 -21.66666,0 -38.33332,23.33332 -49.99999,31.66666 -6.66667,5 -16.66667,0 -16.66667,-8.33334 V 711.11807 c 0,-6.66668 1.66667,-13.33334 6.66667,-20 11.66666,-15 29.99999,-26.66668 49.99999,-25 21.66668,1.66666 38.33334,6.66666 58.33334,16.66666 28.333336,13.33334 60,21.66666 85,6.66666 18.333336,-10 38.333336,-18.33332 60,-21.66666 30,-3.33334 53.33334,23.33334 83.33334,31.66666 15,5 31.66666,1.66668 45,-5 8.33332,-5 16.66666,-11.66666 26.66666,-16.66666 28.33334,-13.33334 61.66666,-1.66666 88.33334,15 15,10 30,6.66666 48.33332,5 15,-1.66666 26.66668,-11.66666 41.66668,-15 18.33332,-3.33334 36.66666,6.66666 55,13.33334 11.66666,5 28.33332,6.66666 40,3.33332 6.66666,-1.66666 13.33332,3.33334 13.33332,10 z"
         fill="#ff5722"
         id="path2-2-1"
         style="stroke-width:0.78125" /><path
         d="m 515.24749,857.78473 c 0,0 1.66666,0 0,0 l 1.66666,-56.66666 c -6.66666,5 -13.33334,8.33332 -15,8.33332 -3.33334,0 -6.66666,1.66668 -10,3.33334 h -5 c -3.33334,0 -6.66666,0 -10,-1.66666 -6.66666,-1.66668 -11.66666,-5 -20,-6.66668 -6.66666,-3.33332 -16.66666,-5 -26.66666,-6.66666 -10,-1.66666 -21.66668,-1.66666 -33.33334,1.66666 -5,1.66668 -11.66666,3.33334 -16.66666,6.66668 -3.33334,1.66666 -8.33334,3.33332 -11.66668,6.66666 -6.66666,3.33334 -13.33332,5 -21.66666,5 h -10 c -3.33334,0 -6.66666,-1.66666 -11.66666,-5 -8.33334,-5 -21.66668,-11.66666 -33.33334,-15 -23.33334,-6.66666 -53.33334,-8.33334 -78.33334,6.66666 -10,6.66668 -18.33332,13.33334 -28.33332,20 -6.66668,3.33334 -16.66668,5 -23.33334,1.66668 -18.33334,-6.66668 -38.33334,-25 -63.333336,-30 -13.333328,-3.33334 -26.666664,-1.66668 -40,1.66666 -11.666664,5 -21.666664,11.66666 -31.666664,18.33334 l -6.666664,5 -6.666672,5 -6.666664,5 -1.6666641,1.66666 H 3.5808141 c -1.6666641,0 -1.6666641,1.66666 -3.33332816,1.66666 -8.33333594,3.33334 -18.33333594,5 -26.66667194,5 -10,0 -18.333328,-1.66666 -26.666664,-5 -8.333336,-3.33332 -16.666664,-6.66666 -25,-11.66666 -15,-8.33334 -31.66666,-15 -45,-16.66666 -15,-1.66668 -28.33334,0 -36.66667,5 -10,3.33332 -16.66666,8.33332 -20,11.66666 -1.66666,5 -3.33333,6.66666 -3.33333,6.66666 0,0 1.66667,-1.66666 6.66667,-5 5,-3.33332 11.66666,-6.66666 21.66667,-10 10,-3.33332 21.66666,-5 35,-1.66666 13.33332,3.33334 28.333324,10 43.333324,20 8.333336,3.33334 15,10 25,13.33334 10,3.33332 20,6.66666 30,6.66666 10,0 21.66667194,0 33.333336,-5 1.666664,0 3.333336,-1.66666 3.333336,-1.66666 1.666664,0 0,0 1.666664,-1.66668 l 1.666664,-1.66666 6.666672,-5 8.333328,-5 6.666672,-5 c 8.333328,-6.66666 16.666664,-11.66666 26.666664,-15 8.333336,-3.33334 20,-1.66666 28.333336,0 10.000004,3.33334 18.333324,8.33334 28.333324,15 10,6.66666 18.33334,13.33334 31.66668,20 13.33332,6.66666 30,6.66666 45,0 l 3.33332,-1.66666 h 3.33334 l 3.33334,-1.66668 6.66666,-5 13.33334,-8.33332 c 16.66666,-8.33334 36.66666,-6.66668 55,0 10,3.33332 15,6.66666 25,13.33332 5,3.33334 10,6.66668 16.66666,8.33334 8.33334,3.33334 13.33334,3.33334 20,3.33334 13.33334,0 25,-1.66668 36.66666,-6.66668 5,-1.66666 8.33334,-3.33332 13.33334,-5 3.33334,-1.66666 6.66666,-1.66666 10,-3.33332 11.66666,-1.66668 21.66666,1.66666 33.33334,6.66666 6.66666,3.33334 11.66666,5 18.33332,8.33334 8.33334,3.33332 15,5 23.33334,6.66666 6.66666,1.66666 15,0 21.66666,-1.66666 5,-1.66668 8.33334,-3.33334 11.66668,-3.33334 z M -163.08585,724.45139 c -8.33333,1.66668 -15,5 -20,8.33334 v 65 c 10,-8.33334 20,-18.33334 21.66667,-20 3.33333,-1.66666 8.33333,-5 13.33333,-8.33334 6.66666,-3.33332 15,-5 25,-3.33332 10,1.66666 21.66666,6.66666 38.333336,15 3.333328,1.66666 8.333328,3.33332 11.666664,6.66666 l 3.333336,1.66666 3.333328,1.66668 h 1.666672 c 1.666664,0 5,1.66666 8.333328,3.33332 11.666672,3.33334 23.333336,6.66668 35,6.66668 11.6666719,0 25.0000001,-1.66668 38.333336,-8.33334 13.333336,-6.66666 21.666664,-15 30,-21.66666 8.333336,-6.66668 15,-11.66668 23.333336,-15 1.666664,0 3.333328,-1.66668 6.666664,-1.66668 h 6.666664 c 3.333336,0 8.333336,0 11.666672,1.66668 8.333324,1.66666 18.333324,6.66666 28.333324,11.66666 10,5 20,13.33334 33.33334,18.33334 13.33334,5 30,5 43.33334,-1.66668 13.33332,-6.66666 20,-15 30,-20 16.66666,-10 38.33332,-10 58.33332,-5 18.33334,5 38.33334,18.33334 61.66668,20 11.66666,0 21.66666,-1.66666 31.66666,-6.66666 10,-5 16.66666,-8.33334 25,-10 15,-5 31.66666,0 45,3.33334 13.33334,5 25,10 36.66666,11.66666 5,0 10,0 15,-1.66666 3.33334,-1.66668 6.66668,-3.33334 10,-3.33334 5,-1.66666 8.33334,-3.33334 8.33334,-3.33334 0,0 -3.33334,0 -8.33334,1.66668 -5,0 -13.33332,3.33332 -23.33332,1.66666 -10,0 -20,-6.66666 -33.33334,-13.33334 -13.33334,-5 -30,-11.66666 -50,-6.66666 -10,1.66666 -18.33334,6.66666 -26.66666,10 -8.33334,3.33334 -16.66668,5 -25,3.33334 -8.33334,-1.66668 -18.33334,-5 -26.66668,-10 -8.33332,-5 -20,-10 -30,-13.33334 -21.66666,-6.66666 -50,-10 -73.33332,1.66666 -11.66668,5 -21.66668,15 -28.33334,16.66668 -8.33334,3.33332 -16.66666,3.33332 -25,-1.66668 -16.66666,-8.33332 -35,-26.66666 -63.33334,-35 -6.66666,-1.66666 -13.333324,-3.33332 -21.66666,-3.33332 H 75.247486 c -3.333336,0 -6.666672,1.66666 -10,1.66666 -13.333336,5 -25,11.66666 -35,18.33334 -10,6.66666 -16.666672,13.33332 -23.333336,15 -6.66666406,3.33332 -15,3.33332 -21.666664,3.33332 -8.333336,0 -15,-3.33332 -21.666672,-5 -1.666664,0 -3.333328,-1.66666 -5,-1.66666 h -1.666664 c 1.666664,1.66666 0,0 1.666664,0 l -11.666664,-3.33334 c -3.333336,-1.66666 -8.333336,-5 -11.666664,-6.66666 -13.333336,-8.33334 -31.666672,-18.33334 -49.999996,-21.66666 -18.33334,-5 -36.66668,-1.66668 -48.33334,3.33332 z"
         fill="#fff3e0"
         id="path3-3"
         style="stroke-width:0.78125"
         sodipodi:nodetypes="cccscsccscccsscsccccccccccscsscccccssscssccsccccccsscccccccscscccccccccccccsscccscssscsscssscccsccccccccccssscccccsscscscscccccc" /></g><g
       id="flames"
       transform="matrix(0.2885507,0,0,0.12525158,35.864871,21.978588)"
       opacity="0"><path
         d="m 202.85652,785.81355 a 93.748003,93.748003 0 0 1 -79.78553,-4.74281 c -22.56158,-12.67703 -36.745675,-33.2883 -25.442724,-56.20448 8.466134,-17.24254 8.288834,-42.10903 -1.507061,-51.72762 0,0 31.470965,-1.68436 31.027705,36.87865 -0.44325,12.85434 40.15872,27.65899 6.33852,-42.81824 -23.40376,-48.49187 44.99018,-60.23808 44.99018,-60.23808 0,0 -16.44469,14.0068 -17.73012,32.71207 -1.10813,16.88794 30.4958,42.06471 32.35747,-13.91814 0,0 36.78999,18.0404 2.12761,65.60144 -24.68919,33.8202 36.21377,34.61806 26.59518,-10.90402 0.31027,0 67.2858,71.8513 -18.97123,105.36123 z"
         fill="#f7931e"
         id="path12-5"
         style="stroke-width:4.43253" /><g
         opacity="0.1"
         id="g13"
         transform="matrix(4.4325297,0,0,4.4325297,-150.19447,377.13431)"><path
           d="m 63.42,91.13 a 20.29,20.29 0 0 0 9.17,2.56 20.53,20.53 0 0 1 -10.94,-2.56 c -5.09,-2.86 -8.29,-7.51 -5.74,-12.69 1.92,-3.88 1.87,-9.48 -0.34,-11.66 a 6.59,6.59 0 0 1 2,0.28 c 2,2.34 1.93,7.66 0.09,11.38 -2.54,5.18 0.66,9.83 5.76,12.69 z"
           id="path13-5" /></g><g
         opacity="0.1"
         id="g14"
         transform="matrix(4.4325297,0,0,4.4325297,-150.19447,377.13431)"><path
           d="m 74.15,51.85 a 7.29,7.29 0 0 0 -0.63,0.6 c -4.11,1.28 -11.7,4.83 -7.78,13 5.31,11 2.53,12.81 0.35,11.9 1.34,-0.78 1.73,-3.93 -2.11,-11.9 -5.26,-10.95 10.17,-13.6 10.17,-13.6 z"
           id="path14-5" /></g><g
         opacity="0.1"
         id="g15"
         transform="matrix(4.4325297,0,0,4.4325297,-150.19447,377.13431)"><path
           d="m 77.47,56.09 a 7.18,7.18 0 0 1 1.69,1.28 c -0.45,5.82 -2.53,7 -4.35,6.31 1.35,-0.59 2.5,-2.74 2.66,-7.59 z"
           id="path15-0" /></g><g
         opacity="0.1"
         id="g16"
         transform="matrix(4.4325297,0,0,4.4325297,-150.19447,377.13431)"><path
           d="m 86,71 c -0.24,4.22 -3.67,5.87 -5.84,5.33 2.36,-0.53 4.86,-3 3.86,-7.87 A 24.52,24.52 0 0 1 86,71 Z"
           id="path16-2" /></g><path
         d="m 10.529057,785.5476 a 97.515653,97.515653 0 0 1 -82.976956,-5.05309 c -23.448082,-13.29759 -38.208411,-34.61805 -26.595178,-58.46506 8.865059,-17.73012 8.643433,-43.74907 -1.551383,-53.76659 0,0 32.712067,-1.72869 32.002862,38.34138 -0.221627,13.29759 41.976056,28.76712 6.737445,-44.32529 -24.112962,-50.48652 46.984815,-62.67597 46.984815,-62.67597 0,0 -17.06524,14.53869 -18.350673,33.9975 -1.152458,17.73012 31.6925871,43.74907 33.64290021,-14.45005 0,0 38.20840579,18.7496 2.21626489,68.17231 -25.6643471,35.19428 37.5878519,35.99214 27.7919609,-11.30295 0,0 69.723695,74.68812 -19.902058,109.52781 z"
         fill="#f7931e"
         id="path17-3"
         style="stroke-width:4.43253" /><g
         opacity="0.1"
         id="g18"
         transform="matrix(4.4325297,0,0,4.4325297,-150.19447,377.13431)"><path
           d="M 19.37,91 A 21.15,21.15 0 0 0 28.91,93.66 21.33,21.33 0 0 1 17.54,91 c -5.29,-3 -8.62,-7.81 -6,-13.19 2,-4 1.95,-9.87 -0.36,-12.13 a 7,7 0 0 1 2.1,0.29 c 2,2.43 2,8 0.09,11.84 -2.62,5.41 0.71,10.25 6,13.19 z"
           id="path18" /></g><g
         opacity="0.1"
         id="g19"
         transform="matrix(4.4325297,0,0,4.4325297,-150.19447,377.13431)"><path
           d="m 30.53,50.19 c 0,0 -0.26,0.22 -0.65,0.63 -4.27,1.32 -12.16,5 -8.08,13.5 5.52,11.46 2.63,13.32 0.36,12.37 1.39,-0.81 1.8,-4.08 -2.19,-12.37 C 14.49,52.94 30.53,50.19 30.53,50.19 Z"
           id="path19" /></g><g
         opacity="0.1"
         id="g20"
         transform="matrix(4.4325297,0,0,4.4325297,-150.19447,377.13431)"><path
           d="m 34,54.6 a 7.48,7.48 0 0 1 1.76,1.33 c -0.47,6 -2.63,7.29 -4.52,6.56 1.38,-0.61 2.58,-2.85 2.76,-7.89 z"
           id="path20-9" /></g><g
         opacity="0.1"
         id="g21"
         transform="matrix(4.4325297,0,0,4.4325297,-150.19447,377.13431)"><path
           d="m 42.81,70.07 c -0.25,4.39 -3.82,6.11 -6.07,5.54 2.45,-0.55 5,-3.16 4,-8.18 a 23.87,23.87 0 0 1 2.07,2.64 z"
           id="path21-5" /></g><path
         d="m 112.43291,787.94116 a 110.23701,110.23701 0 0 1 -93.880974,-5.58498 c -26.5951785,-14.8933 -43.305815,-39.18357 -29.963901,-66.17767 9.9731917,-20.25666 9.7515652,-49.51136 -1.773012,-60.85864 0,0 37.011623,-1.95031 36.213768,43.4388 -0.354603,15.2479 47.516718,32.53476 7.668276,-50.39787 -27.4816841,-57.09098 53.190356,-70.92047 53.190356,-70.92047 0,0 -19.325829,16.48901 -20.788564,38.51868 -1.285433,19.90206 35.903491,49.51136 38.075431,-16.35603 0,0 43.26149,21.18749 2.48222,77.17034 -29.033074,39.89277 42.59661,40.73495 31.51528,-12.81001 -0.1773,0 78.72173,84.57266 -22.73888,123.97785 z"
         fill="#f7931e"
         id="path22-5"
         style="stroke-width:4.43253" /><g
         opacity="0.1"
         id="g23"
         transform="matrix(4.4325297,0,0,4.4325297,-150.19447,377.13431)"><path
           d="m 40.14,91.42 a 23.92,23.92 0 0 0 10.79,3 24.22,24.22 0 0 1 -12.86,-3 c -6,-3.36 -9.77,-8.84 -6.76,-14.93 2.25,-4.57 2.2,-11.17 -0.4,-13.73 a 8.15,8.15 0 0 1 2.37,0.33 c 2.31,2.75 2.27,9 0.1,13.4 -3,6.09 0.77,11.57 6.76,14.93 z"
           id="path23-7" /></g><g
         opacity="0.1"
         id="g24"
         transform="matrix(4.4325297,0,0,4.4325297,-150.19447,377.13431)"><path
           d="m 52.77,45.19 a 10.07,10.07 0 0 0 -0.74,0.71 c -4.84,1.51 -13.77,5.68 -9.15,15.29 6.24,13 3,15.07 0.4,14 1.58,-0.92 2,-4.62 -2.47,-14 -6.2,-12.88 11.96,-16 11.96,-16 z"
           id="path24-9" /></g><g
         opacity="0.1"
         id="g25"
         transform="matrix(4.4325297,0,0,4.4325297,-150.19447,377.13431)"><path
           d="m 56.68,50.19 a 8.35,8.35 0 0 1 2,1.5 c -0.53,6.85 -3,8.26 -5.12,7.43 1.57,-0.69 2.93,-3.23 3.12,-8.93 z"
           id="path25-3" /></g><g
         opacity="0.1"
         id="g26"
         transform="matrix(4.4325297,0,0,4.4325297,-150.19447,377.13431)"><path
           d="m 66.67,67.7 c -0.28,5 -4.32,6.91 -6.87,6.27 2.77,-0.62 5.72,-3.58 4.54,-9.26 a 27.19,27.19 0 0 1 2.33,2.99 z"
           id="path26-4" /></g><path
         d="M 92.708158,791.97476 A 53.411983,53.411983 0 0 1 47.097427,789.35957 C 34.15444,782.13455 26.042911,770.34402 32.514404,757.22373 c 4.875783,-9.84021 4.742807,-24.06863 -0.84218,-29.56497 0,0 17.99607,-0.97516 17.730118,21.05451 0,7.44665 23.09348,15.82414 3.723325,-24.46756 -13.297589,-27.74764 25.752998,-34.44075 25.752998,-34.44075 a 30.717431,30.717431 0 0 0 -10.106168,18.70527 c -0.620554,9.66292 17.464167,24.06864 18.527974,-7.93423 0,0 21.010189,10.28347 1.196783,37.4992 -14.095444,19.32583 20.699916,19.76909 15.292226,-6.24986 -0.13297,-0.0887 38.25273,41.0009 -11.081322,60.14942 z"
         fill="#f15a24"
         id="path27-6"
         style="stroke-width:4.43253" /><g
         opacity="0.1"
         id="g28"
         transform="matrix(4.4325297,0,0,4.4325297,-150.19447,377.13431)"><path
           d="m 45.89,93 a 11.62,11.62 0 0 0 5,1.46 A 11.65,11.65 0 0 1 44.51,93 c -2.92,-1.63 -4.75,-4.29 -3.29,-7.25 1.09,-2.22 1.07,-5.43 -0.19,-6.67 a 4.16,4.16 0 0 1 1.66,0.33 c 1,1.41 0.92,4.3 -0.09,6.34 -1.46,2.94 0.4,5.6 3.29,7.25 z"
           id="path28" /></g><g
         opacity="0.1"
         id="g29"
         transform="matrix(4.4325297,0,0,4.4325297,-150.19447,377.13431)"><path
           d="m 51.65,70.51 c 0,0 -0.22,0.2 -0.53,0.54 -2.41,0.85 -6,2.92 -3.9,7.24 3.22,6.7 1.22,7.43 0,6.68 0.64,-0.58 0.7,-2.43 -1.34,-6.68 -3.05,-6.29 5.77,-7.78 5.77,-7.78 z"
           id="path29" /></g><g
         opacity="0.1"
         id="g30"
         transform="matrix(4.4325297,0,0,4.4325297,-150.19447,377.13431)"><path
           d="m 54.86,74.07 c -0.34,3.19 -1.61,3.67 -2.65,3.12 0.69,-0.44 1.26,-1.68 1.34,-4.24 a 4.08,4.08 0 0 1 1.31,1.12 z"
           id="path30" /></g><g
         opacity="0.1"
         id="g31"
         transform="matrix(4.4325297,0,0,4.4325297,-150.19447,377.13431)"><path
           d="m 58.72,81.94 a 2.84,2.84 0 0 1 -3.45,2.51 c 1.28,-0.4 2.54,-1.83 2,-4.45 a 13.32,13.32 0 0 1 1.45,1.94 z"
           id="path31" /></g></g></g><g
     id="treadmill-2"
     transform="matrix(4.2791666,0,0,4.2791666,-1148.3051,-948.01852)"><path
       d="m 347.42163,265.0653 v 4.03057 h -65.55534 v -4.03057 h 9.56014 15.0231 9.56016 16.38884 z"
       fill="#616161"
       id="path6-69-7"
       style="stroke-width:0.146638" /><path
       d="m 344.39871,226.77495 -3.02292,5.0382 h -11.08405 l 3.02292,-5.0382 z"
       fill="#bdbdbd"
       id="path7-6-6"
       style="stroke-width:0.125955" /><path
       d="m 281.28164,270.10351 a 1.4753576,1.007641 0 0 1 -1.47535,-1.00764 v -4.03057 a 1.4753576,1.007641 0 0 1 1.47535,-1.00764 h 54.58822 a 1.4753634,1.007645 0 0 1 0,2.01529 H 282.757 v 3.02292 a 1.4753576,1.007641 0 0 1 -1.47536,1.00764 z"
       fill="#8e8e8e"
       id="path14-3-7"
       style="stroke-width:0.152409" /><path
       d="m 347.05329,270.10351 h -66.04694 a 1.3759782,1.007641 0 0 1 0,-2.01528 h 64.67097 v -3.02293 a 1.3759782,1.007641 0 0 1 2.75195,0 v 4.03057 a 1.3759782,1.007641 0 0 1 -1.37598,1.00764 z"
       fill="#373737"
       id="path15-9-4"
       style="stroke-width:0.147187" /><path
       d="m 347.42163,266.07295 h -11.08405 a 1.007641,1.007641 0 0 1 -0.99139,-0.8274 l -6.04585,-33.25216 a 1.007646,1.007646 0 0 1 1.98279,-0.36048 l 5.89546,32.42475 h 9.03564 l -5.82983,-32.06427 a 1.0076441,1.0076441 0 0 1 1.98278,-0.36048 l 6.04585,33.25215 a 1.007641,1.007641 0 0 1 -0.9914,1.18789 z"
       fill="#373737"
       id="path16-1-8"
       style="stroke-width:0.125955" /><path
       d="m 330.29073,232.82079 a 1.007641,1.007641 0 0 1 -0.86304,-1.52619 l 3.02292,-5.03821 a 1.007641,1.007641 0 0 1 0.86405,-0.48908 h 11.08405 a 1.007641,1.007641 0 0 1 0,2.01528 h -10.5136 l -2.72932,4.54899 a 1.007641,1.007641 0 0 1 -0.86506,0.48921 z"
       fill="#8e8e8e"
       id="path17-5-2"
       style="stroke-width:0.125955" /><path
       d="m 341.37579,232.82079 h -11.08405 a 1.007641,1.007641 0 0 1 0,-2.01528 h 10.5136 l 2.72932,-4.54899 a 1.0076493,1.0076493 0 0 1 1.7281,1.03686 l -3.02292,5.0382 a 1.007641,1.007641 0 0 1 -0.86405,0.48921 z"
       fill="#373737"
       id="path18-6-2"
       style="stroke-width:0.125955" /><path
       d="m 330.29174,232.82079 h -8.06113 a 1.007641,1.007641 0 0 1 0,-2.01528 h 8.06113 a 1.007641,1.007641 0 0 1 0,2.01528 z"
       fill="#373737"
       id="path19-8-1"
       style="stroke-width:0.125955" /></g></svg>
