<?xml version="1.0" encoding="UTF-8" standalone="no"?>
<!-- Generator: Adobe Illustrator 24.0.3, SVG Export Plug-In . SVG Version: 6.00 Build 0)  -->

<svg
   version="1.1"
   id="Layer_1"
   x="0px"
   y="0px"
   viewBox="0 0 126.95144 98.527931"
   xml:space="preserve"
   sodipodi:docname="role uat bear.svg"
   inkscape:version="1.3.2 (091e20e, 2023-11-25)"
   width="126.95144"
   height="98.527931"
   xmlns:inkscape="http://www.inkscape.org/namespaces/inkscape"
   xmlns:sodipodi="http://sodipodi.sourceforge.net/DTD/sodipodi-0.dtd"
   xmlns="http://www.w3.org/2000/svg"
   xmlns:svg="http://www.w3.org/2000/svg"><defs
   id="defs153">
	
	
	
	

		
		
		
	</defs><sodipodi:namedview
   id="namedview151"
   pagecolor="#ffffff"
   bordercolor="#666666"
   borderopacity="1.0"
   inkscape:pageshadow="2"
   inkscape:pageopacity="0.0"
   inkscape:pagecheckerboard="0"
   showgrid="false"
   inkscape:zoom="4.8226894"
   inkscape:cx="41.67799"
   inkscape:cy="4.3544169"
   inkscape:current-layer="Layer_1"
   inkscape:showpageshadow="2"
   inkscape:deskcolor="#d1d1d1"
   inkscape:lockguides="true"
   inkscape:window-width="1872"
   inkscape:window-height="1175"
   inkscape:window-x="783"
   inkscape:window-y="121"
   inkscape:window-maximized="0" />

<g
   id="g8448"
   transform="matrix(2.8971459,1.6877658,-1.7257861,2.9624102,103.02039,50.383423)"
   style="fill:#634b3b;fill-opacity:1"><g
     inkscape:label="Layer 1"
     id="layer1"
     transform="translate(-0.04200281,-41.265551)"
     style="fill:#634b3b;fill-opacity:1" /><g
     id="layer2"
     inkscape:label="Layer 2"
     transform="translate(-0.19642782,0.30934027)"
     style="fill:#634b3b;fill-opacity:1" /><path
     style="fill:#634b3b;fill-opacity:1;stroke-width:0.0953865"
     d="M 2.4337069,11.436088 C 1.634788,10.102879 1.3005947,7.3251399 1.3005947,7.3251399 c 0,0 -1.05709274,-0.7759221 -0.78424884,-2.1222258 C 0.55320491,4.9752857 -0.57080163,2.8714238 0.3884184,2.4151366 1.3360652,1.9643544 1.7638148,2.1018202 2.1877142,3.3366555 2.6116128,4.5714916 1.3918357,1.3256669 2.2372388,0.93492415 3.7487899,0.31994198 4.1519209,2.5518064 4.1519209,2.5518064 c 0,0 -0.2089193,-2.50096487 0.6674234,-2.5465781 0.9058863,-0.047151 1.4202486,0.18012701 0.9594886,2.5465781 0,0 0.623769,-2.21465711 1.3964385,-2.01656896 0.3233317,0.0828921 1.0637344,0.27877891 0.4410197,2.24033046 0,0 0.4714794,-1.2222829 0.9775768,-1.099499 1.2461143,0.3023189 0.7331117,2.0001175 0.2049031,2.6516734 0.4054683,0.8846584 -0.2387626,1.8666502 -0.8033039,2.6058682 0.270622,2.02204 0.2021927,3.7768245 0.2021927,3.7768245 -1.7424321,0.385727 -3.8439641,0.615817 -5.7639529,0.725653 z"
     id="path8354"
     sodipodi:nodetypes="cccssccasssscccc" /></g><ellipse
   style="fill:#dbdbdb;fill-opacity:1;stroke-width:0.483681"
   id="path8552"
   cx="110.70191"
   cy="46.95303"
   rx="2.6284049"
   ry="4.580688"
   transform="matrix(0.98412021,0.17750329,-0.20185323,0.97941578,0,0)" /><ellipse
   style="fill:#dbdbdb;fill-opacity:1;stroke-width:0.483681"
   id="path8552-5"
   cx="118.11715"
   cy="43.597881"
   rx="2.6284049"
   ry="4.580688"
   transform="matrix(0.98412021,0.17750329,-0.20185323,0.97941578,0,0)" /><ellipse
   style="fill:#dbdbdb;fill-opacity:1;stroke-width:0.41661"
   id="path8552-5-9"
   cx="131.6187"
   cy="12.548599"
   rx="2.302726"
   ry="3.8790226"
   transform="matrix(0.91334869,0.40717829,-0.46843206,0.88349952,0,0)" /><ellipse
   style="fill:#dbdbdb;fill-opacity:1;stroke-width:0.41661"
   id="path8552-5-9-7"
   cx="134.04132"
   cy="-22.089931"
   rx="2.302726"
   ry="3.8790226"
   transform="matrix(0.7768416,0.62969606,-0.68113713,0.73215587,0,0)" /><ellipse
   style="fill:#dbdbdb;fill-opacity:1;stroke-width:0.41661"
   id="path8552-5-9-7-3"
   cx="140.15878"
   cy="-19.797375"
   rx="2.302726"
   ry="3.8790226"
   transform="matrix(0.7768416,0.62969606,-0.68113713,0.73215587,0,0)" /><path
   style="fill:#d45500"
   d="m 52.14,70.377935 c -0.05,0 -0.09,0 -0.14,0 -25.65,0.03 -52,7.1 -52,24.99 v 2.95 h 1.5 1.5 98 1.5 1.5 v -2.95 c 0,-16.87 -26.1,-24.99 -51.86,-24.99 z"
   id="shirt" /><g
   id="g68"
   transform="translate(-11.89,-25.412061)"
   style="fill:#ff9955">
		
			<linearGradient
   id="SVGID_8_"
   gradientUnits="userSpaceOnUse"
   x1="64"
   y1="16.318899"
   x2="64"
   y2="34.552399"
   gradientTransform="matrix(1,0,0,-1,0,128)">
			<stop
   offset="0.5"
   style="stop-color:#F5F5F5"
   id="stop61" />
			<stop
   offset="1"
   style="stop-color:#DADADA"
   id="stop63" />
		</linearGradient>
		<polygon
   style="fill:#ff9955"
   points="75.02,91.38 52.98,91.38 46.39,98.5 55.87,113.19 64,103.15 72.13,113.19 81.61,98.5 "
   id="polygon66" />
	</g><path
   style="fill:none"
   d="m 103.47,98.527935 0.1,-2.77 c 0,-16.81 -25.69,-25.519996 -51.55,-25.469996 -25.62,0.05 -51.38,7.669996 -51.38,25.469996 l -0.1,2.77 z"
   id="path70" />



<g
   id="g1603"
   transform="translate(-52.549538,-11.762326)"><circle
     id="path6997"
     style="fill:#729fcf;stroke:#000000;stroke-width:0.567617"
     cx="171.22633"
     cy="109.41956"
     r="0.0042963722" /><circle
     id="path6999"
     style="fill:#729fcf;stroke:#000000;stroke-width:0.567617"
     cx="171.22633"
     cy="109.41956"
     r="0.0042963722" /><path
     style="fill:#8f5902;fill-opacity:1;stroke:none;stroke-width:0.567617px;stroke-linecap:butt;stroke-linejoin:miter;stroke-opacity:1"
     d="m 177.03228,110.06465 2.4687,-0.0361 -16.30621,-33.315832 c 0,0 -1.26908,-1.581133 -2.7417,-1.064424 l -1.83855,0.645109 c 0,0 2.06434,0.19353 2.61268,1.290208 0.54834,1.096681 15.80508,32.481079 15.80508,32.481079"
     id="path7546"
     sodipodi:nodetypes="cccscsc" /><path
     style="fill:#c17d11;fill-opacity:1;stroke:none;stroke-width:0.567617px;stroke-linecap:butt;stroke-linejoin:miter;stroke-opacity:1"
     d="M 171.41987,110.12916 158.25971,81.744503 c 0,0 -0.2482,-1.061184 -1.25796,-0.580592 -1.97969,0.942241 -33.57775,16.127629 -33.57775,16.127629 0,0 -1.54825,1.354732 -0.90314,2.644953 0.6451,1.290197 4.96731,10.257177 4.96731,10.257177 l -6.32204,-0.0887 -4.9028,-11.458698 c 0,0 -0.58059,-1.677282 1.87081,-2.773954 2.4514,-1.096678 40.83519,-19.740233 40.83519,-19.740233 0,0 1.99982,-0.580594 3.74161,3.483571 1.74178,4.064166 14.32134,30.448994 14.32134,30.448994 z"
     id="path7036"
     sodipodi:nodetypes="ccscscccscscc" /><path
     style="fill:#ffffff;fill-opacity:1;stroke:none;stroke-width:0.567617px;stroke-linecap:butt;stroke-linejoin:miter;stroke-opacity:1"
     d="m 127.48817,110.19367 -5.2239,-10.801133 c 0,0 -0.61656,-1.120485 1.08642,-2.100997 2.12884,-1.225707 32.9737,-15.805079 32.9737,-15.805079 0,0 0.64511,-0.838639 1.93532,1.612763 1.29021,2.451401 13.16016,27.029936 13.16016,27.029936 z"
     id="path8920"
     sodipodi:nodetypes="ccscscc" /><path
     id="path6259"
     style="fill:#729fcf;stroke-width:0.567617"
     d="m 138.67854,77.540111 c -0.87272,0 -4.68165,1.871823 -5.24981,2.346026 0,0 -0.92114,0.441939 -0.21573,3.975375 0.18887,2.000585 0.0185,2.817871 -0.71063,3.405708 -1.39428,1.124278 -3.09058,1.825655 -3.76269,2.60417 -1.48995,1.725839 -0.65894,3.138342 0.45454,5.473293 h 0.001 c 0.92974,1.949717 0.92918,1.949267 3.38575,1.03879 1.3511,-0.500741 15.74389,-7.581428 20.71473,-10.173885 0.47707,-0.248808 0.7104,-0.254504 -1.10752,-3.564241 -2.38307,-3.244836 -4.71432,-2.173661 -8.20402,-0.63796 l -2.18605,-2.085941 c -1.27137,-1.309885 -2.67487,-2.381335 -3.11968,-2.381335 z m -1.11307,2.825894 c 1.12714,1.87e-4 2.04081,0.949598 2.04099,2.120809 4.1e-4,1.171645 -0.91344,2.121729 -2.04099,2.121916 -1.12755,-1.87e-4 -2.0414,-0.950271 -2.04098,-2.121916 1.7e-4,-1.171211 0.91385,-2.120622 2.04098,-2.120809 z"
     sodipodi:nodetypes="ccccscccscccscccccc" /><path
     style="fill:#87cefa;stroke:none;stroke-width:0.567617px;stroke-linecap:butt;stroke-linejoin:miter;stroke-opacity:1"
     d="m 130.47039,93.793185 c 0,0 -1.54263,-1.72281 0.282,-2.635126 1.82464,-0.912318 17.86482,-8.825286 17.86482,-8.825286 0,0 0.61733,-0.336529 0.95601,0.195676 0.33868,0.532212 0.64901,1.326381 0.64901,1.326381 z"
     id="path8205"
     sodipodi:nodetypes="cscscc" /><rect
     style="opacity:0.670932;fill:#a9a9a9;fill-opacity:1;stroke:none;stroke-width:0.23873;stroke-opacity:0.488491"
     id="rect9241"
     width="35.82547"
     height="1.592883"
     x="58.204105"
     y="154.80696"
     transform="matrix(0.89803178,-0.43993058,0.49652065,0.86802491,0,0)" /><rect
     style="opacity:0.670932;fill:#a9a9a9;fill-opacity:1;stroke:none;stroke-width:0.23873;stroke-opacity:0.488491"
     id="rect9241-2"
     width="18.527102"
     height="1.6325459"
     x="75.59462"
     y="163.69846"
     transform="matrix(0.89803178,-0.43993058,0.49652065,0.86802491,0,0)" /><path
     style="fill:#2e8b57;stroke-width:0.567617"
     d="m 156.12465,105.2482 c -2.19632,-0.70125 -2.69619,-1.10547 -2.69619,-2.18024 0,-1.45715 0.61682,-1.6368 2.37998,-0.69317 1.49287,0.79896 1.75119,0.38757 2.675,-4.260109 0.61986,-3.118485 0.86711,-3.57456 1.80496,-3.329308 0.59769,0.156308 1.07799,0.701391 1.06733,1.211312 -0.0235,1.122178 -2.03327,9.714215 -2.32679,9.947175 -0.11445,0.0907 -1.42139,-0.22221 -2.90429,-0.69566 z m -3.97333,-6.811419 c -2.19631,-0.701244 -2.69618,-1.105466 -2.69618,-2.180232 0,-1.456592 0.38272,-1.577404 2.47594,-0.781565 1.38365,0.526065 1.43603,0.446968 2.39338,-3.613897 0.8321,-3.529591 1.13601,-4.110613 2.02805,-3.877338 0.5771,0.150924 1.04055,0.6916 1.02989,1.201521 -0.0235,1.122169 -2.03326,9.714215 -2.32678,9.947176 -0.11446,0.09075 -1.42139,-0.222213 -2.9043,-0.695665 z"
     id="path5584" /></g><g
   id="g1"
   transform="matrix(0.19728321,0,0,0.19728321,16.348095,0)"><path
     id="path1375"
     style="fill:#634b3b;fill-opacity:1;stroke:#b86c31;stroke-opacity:1"
     d="m 307.29152,0.5002532 c -17.46799,0.0575922 -34.39973,9.9389688 -45.45703,25.9785148 -4.30599,6.245994 -12.34891,8.715357 -19.5039,6.19336 -19.69698,-6.942993 -41.08543,-10.748047 -63.44141,-10.748047 -22.35598,0 -43.74538,3.806007 -63.44336,10.75 -7.15499,2.521997 -15.19791,0.05068 -19.503915,-6.195313 C 82.333925,6.7387885 59.828525,-3.6725692 38.373555,2.0764251 9.9025781,9.7044174 -5.9402069,42.901942 2.9887841,76.222909 c 2.525998,9.425991 6.762553,17.852976 12.1855469,24.917971 3.861996,5.032 4.45831,11.85055 1.695313,17.56055 -9.7829899,20.21698 -15.2207029,42.60518 -15.2207029,66.16016 0,8.77899 0.756939,17.39583 2.210937,25.79882 0.111,0.641 0.671266,1.10938 1.322266,1.10938 H 15.254409 c 0.876999,0 1.51411,0.83269 1.28711,1.67969 l -2.376953,8.86914 c -2.521998,9.41399 -1.732621,19.4601 2.484375,28.24609 6.406994,13.35099 14.707904,25.76132 24.587894,36.94531 6.98699,7.90899 10.47267,18.3077 9.38867,28.80469 l -0.87305,8.45508 c -1.91044,18.50993 -9.16397,35.89347 -20.63476,49.96875 H 328.66262 C 317.19086,360.66268 309.93644,343.27807 308.0259,324.76783 l -0.87305,-8.45507 c -1.084,-10.49699 2.40168,-20.8957 9.38867,-28.80469 9.87999,-11.18399 18.1809,-23.59433 24.58789,-36.94531 4.217,-8.78699 5.00638,-18.83211 2.48438,-28.2461 l -2.37695,-8.86914 c -0.227,-0.847 0.41011,-1.67969 1.28711,-1.67969 h 10.07226 c 0.651,0 1.21127,-0.46737 1.32227,-1.10937 1.454,-8.40299 2.21093,-17.01884 2.21093,-25.79883 0,-23.55497 -5.43771,-45.94317 -15.2207,-66.16015 -2.763,-5.71 -2.16768,-12.52856 1.69531,-17.56055 5.423,-7.064998 9.65955,-15.491983 12.18555,-24.917974 C 363.71756,42.899989 347.87578,9.7034643 319.4048,2.0744719 315.382,0.99653553 311.3226,0.48696269 307.29152,0.5002532 Z" /><path
     id="path1588"
     d="m 305.03176,0.5627532 c 10.22699,14.4569848 13.99677,34.7337078 8.55078,55.0546868 -2.526,9.425991 -6.76255,17.851976 -12.18555,24.917969 -3.86199,5.030995 -4.45635,11.850553 -1.69336,17.560547 9.78299,20.216984 15.22071,42.605184 15.22071,66.160164 0,8.77899 -0.75694,17.39779 -2.21094,25.80078 -0.111,0.641 -0.67127,1.10742 -1.32227,1.10742 h -10.07226 c -0.877,0 -1.51411,0.83269 -1.28711,1.67969 l 2.37695,8.87109 c 2.522,9.41399 1.73262,19.45715 -2.48437,28.24414 -6.407,13.35099 -14.7079,25.76132 -24.58789,36.94531 -6.987,7.909 -10.47268,18.3077 -9.38868,28.80469 l 0.87305,8.45508 c 2.74067,26.55383 16.48182,50.77905 37.91016,66.23633 h 20.77734 c -9.57954,-13.25879 -15.76023,-28.94742 -17.48242,-45.63282 l -0.87305,-8.45507 c -1.084,-10.49699 2.40168,-20.8957 9.38867,-28.80469 9.87999,-11.18399 18.1809,-23.59433 24.58789,-36.94531 4.217,-8.78699 5.00638,-18.83211 2.48438,-28.2461 l -2.37695,-8.86914 c -0.227,-0.847 0.41011,-1.67969 1.28711,-1.67969 h 10.07226 c 0.651,0 1.21127,-0.46837 1.32227,-1.10937 1.454,-8.40299 2.21093,-17.01884 2.21093,-25.79883 0,-23.55497 -5.43771,-45.94317 -15.2207,-66.16015 -2.763,-5.71 -2.16768,-12.52856 1.69531,-17.56055 5.423,-7.064998 9.65955,-15.491983 12.18555,-24.917974 C 363.71756,42.899989 347.87578,9.7034643 319.4048,2.0744719 314.62981,0.79447324 309.80075,0.31675345 305.03176,0.5627532 Z"
     style="fill:#7e5e4a;fill-opacity:1" /><g
     fill="#efc89d"
     id="g12"
     transform="translate(-77.110825,0.50220633)"><path
       d="m 282.853,345.954 h -53.706 c -14.711,0 -26.636,-11.925 -26.636,-26.636 v -7.106 h 106.978 v 7.106 c 0,14.711 -11.925,26.636 -26.636,26.636 z"
       id="path6" /><path
       d="m 113.153,81.372 c 1.112,1.823 3.695,2.037 5.108,0.436 9.627,-10.914 20.757,-20.661 33.102,-28.974 1.357,-0.914 1.848,-2.699 1.077,-4.142 -6.509,-12.196 -18.295,-19.486 -28.798,-16.672 -12.876,3.45 -19.829,21.016 -15.182,38.359 1.073,4.001 2.687,7.705 4.693,10.993 z"
       id="path8" /><path
       d="m 396.412,84.915 c 3.144,-4.073 5.649,-9.021 7.127,-14.537 4.647,-17.342 -2.306,-34.908 -15.182,-38.359 -11.227,-3.008 -23.919,5.529 -30.066,19.261 14.457,9.409 27.314,20.758 38.121,33.635 z"
       id="path10" /></g><circle
     style="fill:#ffffff;stroke:none;stroke-width:11"
     id="path343-5"
     cx="238.13896"
     cy="147.00514"
     r="34.132885" /><circle
     style="fill:#808080;stroke:none;stroke-width:11"
     id="path343-5-1"
     cx="227.01698"
     cy="152.75787"
     r="12.272499" /><circle
     style="fill:#ffffff;stroke:none;stroke-width:11"
     id="path343"
     cx="121.16672"
     cy="150.45679"
     r="34.132885" /><circle
     style="fill:#808080;stroke:none;stroke-width:11"
     id="path343-5-1-5"
     cx="133.82274"
     cy="151.60735"
     r="12.272499" /><path
     d="m 92.482075,113.60913 43.982095,19.117 c 7.23537,3.145 16.48713,1.279 20.66471,-4.168 7.61261,-9.926 3.09499,-22.619 -10.08994,-28.35001 L 126.8604,91.438124 c -13.18493,-5.731003 -30.045335,-2.330003 -37.657945,7.596 l -1.30309,1.700006 c -3.45762,4.508 -1.40536,10.272 4.58271,12.875 z"
     fill="#f4d8bc"
     id="path16"
     style="fill:#8b4513;stroke-width:1" /><path
     d="m 266.55917,128.00625 -45.09681,3.27162 c -7.41879,0.53831 -15.06778,-3.99336 -17.08474,-10.12203 -3.67535,-11.16815 4.30509,-21.01719 17.82422,-21.998061 l 20.68975,-1.500383 c 13.51914,-0.98087 27.45852,7.278004 31.13388,18.446164 l 0.62885,1.91251 c 1.66944,5.07222 -1.95524,9.54452 -8.09515,9.99018 z"
     fill="#f4d8bc"
     id="path16-0"
     style="fill:#8b4513;stroke-width:1" /><path
     d="m 237.33618,216.38221 -31.346,-36.771 c -1.219,-1.43 -3.151,-2.031 -4.966,-1.545 l -10.795,2.893 c -7.429,1.991 -15.251,1.991 -22.68,0 l -10.789,-2.891 c -1.818,-0.487 -3.755,0.115 -4.976,1.548 l -31.341,36.766 c -11.594,13.6 -17.831,30.961 -17.545,48.829 l 0.384,23.933 c 0.21,13.078 10.871,23.57 23.951,23.57 h 103.312 c 13.08,0 23.742,-10.492 23.951,-23.57 l 0.384,-23.933 c 0.287,-17.869 -5.951,-35.229 -17.544,-48.829 z"
     fill="#f4d8bc"
     id="path18" /><path
     d="m 264.34818,343.24421 c 1.086,0 2.19,-0.23 3.24,-0.716 14.258,-6.598 27.669,-15.003 39.708,-24.822 l -0.144,-1.393 c -1.084,-10.497 2.403,-20.895 9.39,-28.804 -15.031,16.99 -34.204,31.166 -55.444,40.995 -3.873,1.793 -5.559,6.384 -3.767,10.257 1.306,2.822 4.099,4.483 7.017,4.483 z"
     fill="#544f57"
     id="path20" /><path
     d="m 276.83918,337.93121 c 10.822,-5.755 21.058,-12.559 30.456,-20.225 l -0.144,-1.393 c -1.084,-10.497 2.403,-20.895 9.39,-28.804 -12.683,14.336 -28.315,26.669 -45.65,36.077 1.593,4.952 3.584,9.751 5.948,14.345 z"
     fill="#454045"
     id="path22" /><path
     d="m 50.626175,316.31321 -0.146,1.416 c 12.059,9.847 25.498,18.275 39.789,24.888 1.051,0.486 2.154,0.716 3.24,0.716 2.918,0 5.711,-1.662 7.017005,-4.484 1.792,-3.872 0.106,-8.464 -3.767005,-10.257 -21.279,-9.847 -40.478,-24.053 -55.523,-41.083 6.987,7.909 10.473,18.307 9.39,28.804 z"
     fill="#544f57"
     id="path24" /><path
     d="m 186.61518,312.71421 v -49.746 c 0,-4.268 -3.459,-7.726 -7.726,-7.726 -4.267,0 -7.726,3.459 -7.726,7.726 v 49.746 z"
     fill="#efc89d"
     id="path26" /><path
     d="m 183.02418,278.27421 h -8.269 c -7.595,0 -14.506,-4.387 -17.738,-11.259 l -3.807,-8.093 c -4.642,-9.87 2.559,-21.215 13.466,-21.215 h 24.427 c 10.907,0 18.108,11.345 13.466,21.215 l -3.807,8.093 c -3.233,6.873 -10.144,11.259 -17.738,11.259 z"
     fill="#665e66"
     id="path36" /></g></svg>
