<?xml version="1.0" encoding="UTF-8" standalone="no"?>
<!-- Generator: Adobe Illustrator 24.0.3, SVG Export Plug-In . SVG Version: 6.00 Build 0)  -->

<svg
   version="1.1"
   id="Layer_1"
   x="0px"
   y="0px"
   viewBox="0 0 128 128"
   style="enable-background:new 0 0 128 128;"
   xml:space="preserve"
   sodipodi:docname="role operator panda dashboard.svg"
   inkscape:version="1.3.2 (091e20e, 2023-11-25, custom)"
   xmlns:inkscape="http://www.inkscape.org/namespaces/inkscape"
   xmlns:sodipodi="http://sodipodi.sourceforge.net/DTD/sodipodi-0.dtd"
   xmlns:xlink="http://www.w3.org/1999/xlink"
   xmlns="http://www.w3.org/2000/svg"
   xmlns:svg="http://www.w3.org/2000/svg"><defs
   id="defs138"><linearGradient
     id="SVGID_6_"
     gradientUnits="userSpaceOnUse"
     x1="64.321503"
     y1="125.0854"
     x2="64.321503"
     y2="88.047897"
     gradientTransform="matrix(1,0,0,-1,-11.894946,141.67752)">
		<stop
   offset="0"
   style="stop-color:#FFFF00"
   id="stop102" />
		<stop
   offset="0.4462"
   style="stop-color:#FFF900"
   id="stop104" />
		<stop
   offset="1"
   style="stop-color:#FFEA00"
   id="stop106" />
	</linearGradient><linearGradient
     id="SVGID_3_"
     gradientUnits="userSpaceOnUse"
     x1="43.075001"
     y1="31.8769"
     x2="43.075001"
     y2="-6.8341999"
     gradientTransform="matrix(1,0,0,-1,-11.894946,132.85901)">
			<stop
   offset="3.200000e-03"
   style="stop-color:#FFFF00"
   id="stop56" />
			<stop
   offset="0.6783"
   style="stop-color:#FFF200"
   id="stop58" />
			<stop
   offset="1"
   style="stop-color:#FFEA00"
   id="stop60" />
		</linearGradient><linearGradient
     id="SVGID_5_"
     gradientUnits="userSpaceOnUse"
     x1="84.919998"
     y1="31.7791"
     x2="84.919998"
     y2="-6.7863998"
     gradientTransform="matrix(1,0,0,-1,-11.894946,132.85901)">
			<stop
   offset="3.200000e-03"
   style="stop-color:#FFFF00"
   id="stop80" />
			<stop
   offset="0.6783"
   style="stop-color:#FFF200"
   id="stop82" />
			<stop
   offset="1"
   style="stop-color:#FFEA00"
   id="stop84" />
		</linearGradient><defs
     id="defs121">
				<path
   id="SVGID_9_"
   d="m 64.41,8.1 c -46.76,0 -43.24,46.43 -43.24,46.43 0,0 12.21,-10.8 43.5,-10.8 31.29,0 42.1,9.8 42.1,9.8 0,0 4.4,-45.43 -42.36,-45.43 z" />
			</defs><clipPath
     id="SVGID_10_">
				<use
   xlink:href="#SVGID_9_"
   style="overflow:visible"
   id="use123" />
			</clipPath><defs
     id="defs112">
				<path
   id="SVGID_7_"
   d="m 64.41,8.1 c -46.76,0 -43.24,46.43 -43.24,46.43 0,0 12.21,-10.8 43.5,-10.8 31.29,0 42.1,9.8 42.1,9.8 0,0 4.4,-45.43 -42.36,-45.43 z" />
			</defs><clipPath
     id="SVGID_8_">
				<use
   xlink:href="#SVGID_7_"
   style="overflow:visible"
   id="use114" />
			</clipPath><linearGradient
     id="SVGID_4_"
     gradientUnits="userSpaceOnUse"
     x1="83.974998"
     y1="31.631399"
     x2="83.974998"
     y2="-6.0325999"
     gradientTransform="matrix(1,0,0,-1,-11.894946,132.85901)">
					<stop
   offset="3.200000e-03"
   style="stop-color:#FF9100"
   id="stop67" />
					<stop
   offset="0.4399"
   style="stop-color:#FF8400"
   id="stop69" />
					<stop
   offset="1"
   style="stop-color:#FF6D00"
   id="stop71" />
				</linearGradient><linearGradient
     id="SVGID_2_"
     gradientUnits="userSpaceOnUse"
     x1="44.025002"
     y1="31.669001"
     x2="44.025002"
     y2="-6.0499001"
     gradientTransform="matrix(1,0,0,-1,-11.894946,132.85901)">
					<stop
   offset="3.200000e-03"
   style="stop-color:#FF9100"
   id="stop43" />
					<stop
   offset="0.4399"
   style="stop-color:#FF8400"
   id="stop45" />
					<stop
   offset="1"
   style="stop-color:#FF6D00"
   id="stop47" />
				</linearGradient></defs><sodipodi:namedview
   id="namedview136"
   pagecolor="#ffffff"
   bordercolor="#666666"
   borderopacity="1.0"
   inkscape:pageshadow="2"
   inkscape:pageopacity="0.0"
   inkscape:pagecheckerboard="0"
   showgrid="false"
   inkscape:zoom="3.4101562"
   inkscape:cx="81.081329"
   inkscape:cy="64.219932"
   inkscape:current-layer="Layer_1"
   inkscape:showpageshadow="2"
   inkscape:deskcolor="#d1d1d1"
   inkscape:window-width="1227"
   inkscape:window-height="1154"
   inkscape:window-x="238"
   inkscape:window-y="247"
   inkscape:window-maximized="0" />










<g
   id="g2700"
   transform="matrix(0.72994684,0,0,0.72994684,37.486592,-2.9197874)"><g
     id="g2436">
	<path
   style="fill:#bdbdbd"
   d="M 112,124 H 16 C 9.4,124 4,118.6 4,112 V 16 C 4,9.4 9.4,4 16,4 h 96 c 6.6,0 12,5.4 12,12 v 96 c 0,6.6 -5.4,12 -12,12 z"
   id="path2434" />
</g><g
     id="g2606">
	<g
   id="g2478">
		<g
   id="g2448">
			<g
   style="opacity:0.7"
   id="g2440">
				<circle
   style="fill:#757575"
   cx="34.799999"
   cy="91.489998"
   r="18.82"
   id="circle2438" />
			</g>
			<circle
   style="fill:#37474f"
   cx="34.799999"
   cy="91.489998"
   r="15.9"
   id="circle2442" />
			<g
   id="g2446">
				<path
   style="fill:#ffffff"
   d="m 50.4,88.4 c -0.12,-0.59 -0.27,-1.16 -0.45,-1.72 l -12.24,2.43 c -1.15,0.23 -1.9,1.35 -1.67,2.5 0.23,1.15 1.35,1.9 2.5,1.67 L 50.68,90.87 C 50.64,90.06 50.57,89.23 50.4,88.4 Z"
   id="path2444" />
			</g>
		</g>
		<g
   style="opacity:0.7"
   id="g2472">
			<circle
   style="fill:#212121"
   cx="18.209999"
   cy="107.73"
   r="1.76"
   id="circle2450" />
			<circle
   style="fill:#212121"
   cx="12.43"
   cy="98.25"
   r="1.76"
   id="circle2452" />
			<circle
   style="fill:#212121"
   cx="11.61"
   cy="87.540001"
   r="1.76"
   id="circle2454" />
			<circle
   style="fill:#212121"
   cx="15.73"
   cy="77.440002"
   r="1.76"
   id="circle2456" />
			<circle
   style="fill:#212121"
   cx="24.299999"
   cy="70.129997"
   r="1.76"
   id="circle2458" />
			<circle
   style="fill:#212121"
   cx="34.799999"
   cy="67.660004"
   r="1.76"
   id="circle2460" />
			<circle
   style="fill:#212121"
   cx="45.310001"
   cy="70.129997"
   r="1.76"
   id="circle2462" />
			<circle
   style="fill:#212121"
   cx="53.869999"
   cy="77.440002"
   r="1.76"
   id="circle2464" />
			<circle
   style="fill:#212121"
   cx="58"
   cy="87.540001"
   r="1.76"
   id="circle2466" />
			<circle
   style="fill:#212121"
   cx="57.169998"
   cy="98.25"
   r="1.76"
   id="circle2468" />
			<circle
   style="fill:#212121"
   cx="51.400002"
   cy="107.73"
   r="1.76"
   id="circle2470" />
		</g>
		<g
   id="g2476">
			<path
   style="fill:#2f7889"
   d="m 22.42,89.25 c 1.05,-4.51 4.39,-8.47 8.68,-10.22 0.56,-0.23 1.43,-0.2 1.69,0.5 0.31,0.84 0.16,1.41 -0.79,1.95 -2.81,1.61 -5.11,5.07 -5.96,8.6 -0.25,1.03 -1.31,1.64 -2.33,1.34 v 0 C 22.79,91.13 22.2,90.19 22.42,89.25 Z"
   id="path2474" />
		</g>
	</g>
	<g
   id="g2520">
		<g
   id="g2490">
			<g
   style="opacity:0.7"
   id="g2482">
				<circle
   style="fill:#757575"
   cx="34.799999"
   cy="37.23"
   r="18.82"
   id="circle2480" />
			</g>
			<circle
   style="fill:#37474f"
   cx="34.799999"
   cy="37.23"
   r="15.9"
   id="circle2484" />
			<g
   id="g2488">
				<path
   style="fill:#ffffff"
   d="m 46.52,26.48 c -0.41,-0.44 -0.84,-0.85 -1.28,-1.24 l -9.19,8.45 c -0.87,0.8 -0.92,2.14 -0.13,3.01 0.8,0.87 2.14,0.92 3.01,0.13 l 9.12,-8.37 C 47.59,27.77 47.09,27.1 46.52,26.48 Z"
   id="path2486" />
			</g>
		</g>
		<g
   style="opacity:0.7"
   id="g2514">
			<circle
   style="fill:#212121"
   cx="18.209999"
   cy="53.470001"
   r="1.76"
   id="circle2492" />
			<circle
   style="fill:#212121"
   cx="12.43"
   cy="43.990002"
   r="1.76"
   id="circle2494" />
			<circle
   style="fill:#212121"
   cx="11.61"
   cy="33.279999"
   r="1.76"
   id="circle2496" />
			<circle
   style="fill:#212121"
   cx="15.73"
   cy="23.18"
   r="1.76"
   id="circle2498" />
			<circle
   style="fill:#212121"
   cx="24.299999"
   cy="15.87"
   r="1.76"
   id="circle2500" />
			<circle
   style="fill:#212121"
   cx="34.799999"
   cy="13.4"
   r="1.76"
   id="circle2502" />
			<circle
   style="fill:#212121"
   cx="45.310001"
   cy="15.87"
   r="1.76"
   id="circle2504" />
			<circle
   style="fill:#212121"
   cx="53.869999"
   cy="23.18"
   r="1.76"
   id="circle2506" />
			<circle
   style="fill:#212121"
   cx="58"
   cy="33.279999"
   r="1.76"
   id="circle2508" />
			<circle
   style="fill:#212121"
   cx="57.169998"
   cy="43.990002"
   r="1.76"
   id="circle2510" />
			<circle
   style="fill:#212121"
   cx="51.400002"
   cy="53.470001"
   r="1.76"
   id="circle2512" />
		</g>
		<g
   id="g2518">
			<path
   style="fill:#2f7889"
   d="m 22.42,34.96 c 1.05,-4.51 4.39,-8.47 8.68,-10.22 0.56,-0.23 1.43,-0.2 1.69,0.5 0.31,0.84 0.16,1.41 -0.79,1.95 -2.81,1.61 -5.11,5.07 -5.96,8.6 -0.25,1.03 -1.31,1.64 -2.33,1.34 v 0 C 22.79,36.85 22.2,35.9 22.42,34.96 Z"
   id="path2516" />
		</g>
	</g>
	<g
   id="g2562">
		<g
   id="g2532">
			<g
   style="opacity:0.7"
   id="g2524">
				<circle
   style="fill:#757575"
   cx="93.199997"
   cy="91.489998"
   r="18.82"
   id="circle2522" />
			</g>
			<circle
   style="fill:#37474f"
   cx="93.199997"
   cy="91.489998"
   r="15.9"
   id="circle2526" />
			<g
   id="g2530">
				<path
   style="fill:#ffffff"
   d="m 105.99,82.05 c -0.36,-0.48 -0.74,-0.94 -1.14,-1.37 L 94.81,88.1 c -0.95,0.7 -1.15,2.03 -0.45,2.98 0.7,0.95 2.03,1.15 2.98,0.45 l 9.95,-7.35 c -0.37,-0.74 -0.8,-1.45 -1.3,-2.13 z"
   id="path2528" />
			</g>
		</g>
		<g
   style="opacity:0.7"
   id="g2556">
			<circle
   style="fill:#212121"
   cx="76.599998"
   cy="107.73"
   r="1.76"
   id="circle2534" />
			<circle
   style="fill:#212121"
   cx="70.830002"
   cy="98.25"
   r="1.76"
   id="circle2536" />
			<circle
   style="fill:#212121"
   cx="70"
   cy="87.540001"
   r="1.76"
   id="circle2538" />
			<circle
   style="fill:#212121"
   cx="74.129997"
   cy="77.440002"
   r="1.76"
   id="circle2540" />
			<circle
   style="fill:#212121"
   cx="82.690002"
   cy="70.129997"
   r="1.76"
   id="circle2542" />
			<circle
   style="fill:#212121"
   cx="93.199997"
   cy="67.660004"
   r="1.76"
   id="circle2544" />
			<circle
   style="fill:#212121"
   cx="103.7"
   cy="70.129997"
   r="1.76"
   id="circle2546" />
			<circle
   style="fill:#212121"
   cx="112.27"
   cy="77.440002"
   r="1.76"
   id="circle2548" />
			<circle
   style="fill:#212121"
   cx="116.39"
   cy="87.540001"
   r="1.76"
   id="circle2550" />
			<circle
   style="fill:#212121"
   cx="115.57"
   cy="98.25"
   r="1.76"
   id="circle2552" />
			<circle
   style="fill:#212121"
   cx="109.79"
   cy="107.73"
   r="1.76"
   id="circle2554" />
		</g>
		<g
   id="g2560">
			<path
   style="fill:#2f7889"
   d="m 80.7,89.25 c 1.05,-4.51 4.39,-8.47 8.68,-10.22 0.56,-0.23 1.43,-0.2 1.69,0.5 0.31,0.84 0.16,1.41 -0.79,1.95 -2.81,1.61 -5.11,5.07 -5.96,8.6 -0.25,1.03 -1.31,1.64 -2.33,1.34 v 0 C 81.07,91.13 80.48,90.19 80.7,89.25 Z"
   id="path2558" />
		</g>
	</g>
	<g
   id="g2604">
		<g
   id="g2574">
			<g
   style="opacity:0.7"
   id="g2566">
				<circle
   style="fill:#757575"
   cx="93.199997"
   cy="37.23"
   r="18.82"
   id="circle2564" />
			</g>
			<circle
   style="fill:#37474f"
   cx="93.199997"
   cy="37.23"
   r="15.9"
   id="circle2568" />
			<g
   id="g2572">
				<path
   style="fill:#ffffff"
   d="m 80.53,27.62 c -0.36,0.48 -0.69,0.98 -0.99,1.48 l 9.95,7.54 c 0.94,0.71 2.27,0.53 2.98,-0.41 0.71,-0.94 0.53,-2.27 -0.41,-2.98 L 82.2,25.77 c -0.59,0.57 -1.16,1.18 -1.67,1.85 z"
   id="path2570" />
			</g>
		</g>
		<g
   style="opacity:0.7"
   id="g2598">
			<circle
   style="fill:#212121"
   cx="76.599998"
   cy="53.470001"
   r="1.76"
   id="circle2576" />
			<circle
   style="fill:#212121"
   cx="70.830002"
   cy="43.990002"
   r="1.76"
   id="circle2578" />
			<circle
   style="fill:#212121"
   cx="70"
   cy="33.279999"
   r="1.76"
   id="circle2580" />
			<circle
   style="fill:#212121"
   cx="74.129997"
   cy="23.18"
   r="1.76"
   id="circle2582" />
			<circle
   style="fill:#212121"
   cx="82.690002"
   cy="15.87"
   r="1.76"
   id="circle2584" />
			<circle
   style="fill:#212121"
   cx="93.199997"
   cy="13.4"
   r="1.76"
   id="circle2586" />
			<circle
   style="fill:#212121"
   cx="103.7"
   cy="15.87"
   r="1.76"
   id="circle2588" />
			<circle
   style="fill:#212121"
   cx="112.27"
   cy="23.18"
   r="1.76"
   id="circle2590" />
			<circle
   style="fill:#212121"
   cx="116.39"
   cy="33.279999"
   r="1.76"
   id="circle2592" />
			<circle
   style="fill:#212121"
   cx="115.57"
   cy="43.990002"
   r="1.76"
   id="circle2594" />
			<circle
   style="fill:#212121"
   cx="109.79"
   cy="53.470001"
   r="1.76"
   id="circle2596" />
		</g>
		<g
   id="g2602">
			<path
   style="fill:#2f7889"
   d="m 82.8,45.35 c -2.02,-3.2 -2.34,-5.34 -2.21,-8.48 0.04,-0.85 0.43,-2.28 1.69,-2.07 1.14,0.19 1.02,1.21 1.11,1.91 0.37,2.7 1.01,4.17 2.55,6.65 0.56,0.9 0.24,2.08 -0.69,2.6 v 0 c -0.84,0.45 -1.93,0.21 -2.45,-0.61 z"
   id="path2600" />
		</g>
	</g>
</g></g><path
   style="fill:#2094e6;fill-opacity:1"
   d="m 104.10505,126.99901 v -3.12 c 0,-16.78 -26.349996,-25.089997 -51.999996,-25.059997 -25.49,0.03 -52,7.279997 -52,25.059997 v 3.12 z"
   id="path9" /><path
   style="fill:#ffea00"
   d="m 6.105054,67.169013 c 0,9.34 20.6,16.92 46,16.92 25.4,0 46,-7.58 46,-16.92 0,-9.34 -92,-9.35 -92,0 z"
   id="path12" /><path
   style="fill:#edbf00"
   d="m 93.485054,67.149013 c -8.12,-5.31 -19.54,-9.71 -41.38,-9.72 -21.85,0.01 -33.27,4.4 -41.38,9.72 -0.62,0.41 -0.78,1.21 -0.33,1.8 4.46,5.84 23.47,11.58 41.71,11.59 18.24,-0.02 38,-6.62 41.71,-11.58 0.44,-0.6 0.3,-1.4 -0.33,-1.81 z"
   id="path14" /><path
   style="fill:url(#SVGID_2_)"
   d="m 46.605054,126.99901 h -28.95 v -22.74 c 1.79,-0.7 3.68,-1.32 5.64,-1.86 2.89,-0.82 5.94,-1.49 9.1,-2.01 2.14,-0.36 4.33,-0.649997 6.55,-0.879997 z"
   id="path50" /><path
   style="fill:url(#SVGID_3_)"
   d="m 39.065054,126.99901 h -14.67 l -1.1,-24.6 c 2.89,-0.82 5.94,-1.49 9.1,-2.01 z"
   id="path63" /><path
   style="fill:url(#SVGID_4_)"
   d="m 86.555054,104.55901 v 22.44 h -28.95 l 7.65,-27.449997 c 2.21,0.24 4.4,0.559997 6.53,0.939997 3.17,0.57 6.23,1.27 9.12,2.13 1.97,0.58 3.86,1.23 5.65,1.94 z"
   id="path74" /><path
   style="fill:url(#SVGID_5_)"
   d="m 80.905054,102.61901 -1.09,24.38 h -14.67 l 6.64,-26.51 c 3.17,0.57 6.23,1.27 9.12,2.13 z"
   id="path87" /><path
   d="M 21.312419,56.053594 A 12.938077,12.868873 0 1 1 39.192842,39.221109 Z"
   fill="#2b2b3a"
   id="path1215"
   style="stroke-width:1.29034" /><path
   d="M 65.017243,39.221109 A 12.938077,12.868873 0 1 1 82.897666,56.053594 Z"
   fill="#2b2b3a"
   id="path1217"
   style="stroke-width:1.29034" /><path
   d="M 52.105043,108.87734 C 67.575517,108.87219 58.261722,98.825994 73.449502,98.142061 83.184705,97.703667 89.63387,83.185494 89.63387,75.18717 87.804388,60.866927 81.082926,45.104228 67.712245,40.116783 62.721697,38.2233 57.444521,37.185084 52.105043,37.04627 46.765564,37.185084 41.488388,38.2233 36.49784,40.116783 22.860998,46.347638 14.600582,65.114672 14.576216,75.080845 c 0,8.560338 10.146884,23.07772 17.910629,23.33402 10.979918,0.362474 6.680121,10.466795 19.618198,10.462475 z"
   fill="#dbdbdb"
   id="path1219"
   sodipodi:nodetypes="sscccccss"
   style="stroke-width:1.29034" /><path
   d="M 36.618164,84.661099 H 33.732973 A 7.5040847,7.4639463 0 0 1 28.117848,72.242637 l 6.857181,-7.669849 a 5.4055286,5.3766151 0 0 1 4.010804,-1.788773 5.3498948,5.321279 0 0 1 5.356363,5.327713 v 2.393611 z"
   fill="#2b2b3a"
   id="path1221"
   style="stroke-width:1.29034" /><path
   d="m 59.867889,70.505339 v -2.393611 a 5.3490989,5.321279 0 0 1 5.355567,-5.327713 5.4047243,5.3766151 0 0 1 4.010207,1.788773 l 6.85616,7.669849 a 7.5029682,7.4639463 0 0 1 -5.61429,12.418462 h -2.884761 z"
   fill="#2b2b3a"
   id="path1223"
   style="stroke-width:1.29025" /><ellipse
   cx="65.043121"
   cy="73.079117"
   fill="#ffffff"
   id="circle1225"
   rx="3.881423"
   ry="3.860662"
   style="stroke-width:1.29034" /><ellipse
   cx="39.166965"
   cy="73.079117"
   fill="#ffffff"
   id="circle1227"
   rx="3.881423"
   ry="3.860662"
   style="stroke-width:1.29034" /><path
   d="m 44.342196,97.529972 0.375205,1.119592 a 4.0379738,4.0163753 0 0 0 3.82967,2.741066 h 7.115943 a 4.0379738,4.0163753 0 0 0 3.829671,-2.741066 l 0.375204,-1.119592 -7.762846,-7.721324 z"
   fill="#aea8af"
   id="path1229"
   style="stroke-width:1.29034" /><path
   d="m 52.104816,92.376439 1.566845,2.078323 c 1.456594,1.932522 3.743312,3.069733 6.171644,3.069226 h 2.081798 c 5.54417,-1.273618 7.247345,-4.448396 6.841854,-8.470292 -2.693514,-10.452387 -8.899068,-18.554341 -8.899068,-18.554341 -2.762331,-1.158602 0,-1.196805 -7.763073,-1.286888 -7.763075,0.09008 -4.066458,3e-6 -7.763075,1.286888 0,0 -7.148871,7.199755 -9.277006,18.479157 0.02238,5.227531 4.100269,8.45117 7.219792,8.545476 h 2.081798 c 2.428332,5.07e-4 4.715051,-1.136704 6.171643,-3.069226 z"
   fill="#efefef"
   id="path1231"
   sodipodi:nodetypes="ccccccccccccc"
   style="stroke-width:1.29036" /><path
   d="m 58.690524,84.773058 a 2.1451332,2.1336591 0 0 1 -0.504585,3.989351 8.9143351,8.8666535 0 0 0 -6.080896,3.620014 8.8729332,8.8254731 0 0 0 -6.058902,-3.618727 2.1334889,2.1220772 0 0 1 -0.504585,-3.989351 14.149081,14.0734 0 0 1 6.573837,-1.400133 14.150375,14.074686 0 0 1 6.575131,1.398846 z"
   fill="#2b2b3a"
   id="path1233"
   style="stroke-width:1.29034" /><ellipse
   cx="39.620491"
   cy="72.402466"
   id="circle1235"
   rx="2.4276216"
   ry="2.3394535"
   style="fill:#1f1f2b;stroke-width:1.29034" /><ellipse
   cx="64.539619"
   cy="72.402466"
   id="circle1235-5"
   rx="2.4276216"
   ry="2.3394535"
   style="fill:#1f1f2b;stroke-width:1.29034" /><path
   id="XMLID_4_"
   style="fill:#e6e420;fill-opacity:1"
   d="m 52.515054,19.777523 c -46.76,0 -43.24,46.43 -43.24,46.43 0,0 12.21,-10.8 43.5,-10.8 31.29,0 42.1,9.8 42.1,9.8 0,0 4.4,-45.43 -42.36,-45.43 z" /><path
   style="fill:url(#SVGID_6_)"
   d="m 62.825054,54.007523 h -20.8 v -33.1 c 0,-2.79 2.26,-5.05 5.05,-5.05 h 10.7 c 2.79,0 5.05,2.26 5.05,5.05 z"
   id="path109" /><path
   id="XMLID_3_"
   style="opacity:0.5;fill:#edbf00;enable-background:new"
   d="M 47.12,10.4 54.07,8.1 V 31.39 C 52.66,21.33 50.64,14.05 47.12,10.4 Z"
   clip-path="url(#SVGID_8_)"
   transform="translate(-11.894946,11.677523)" /><path
   style="opacity:0.5;fill:#edbf00;enable-background:new"
   d="M 81.71,10.4 74.76,8.1 V 31.39 C 76.17,21.33 78.19,14.05 81.71,10.4 Z"
   clip-path="url(#SVGID_10_)"
   id="path126"
   transform="translate(-11.894946,11.677523)" /><path
   style="fill:#ffea00"
   d="m 97.635054,62.847523 c -0.25,-0.42 -0.64,-0.74 -1.07,-0.99 -18.1,-10.42 -44.46,-10.08 -44.46,-10.08 0,0 -26.36,-0.34 -44.46,10.07 -0.44,0.25 -0.82,0.57 -1.07,0.99 -0.53,0.9 -0.97,2.61 0.75,5.08 0,0 10.95,-10.85 44.78,-11.53 33.82,0.69 44.78,11.53 44.78,11.53 1.72,-2.46 1.28,-4.17 0.75,-5.07 z"
   id="path132" /><path
   d="m 110.85615,77.002095 1.31582,11.825008 c 0,0 -1.54,1.987145 -5.03572,2.409537 -3.49572,0.422394 -5.45143,-1.142359 -5.45143,-1.142359 l -1.39104,-11.88519 c -3.80495,3.02281 -6.096057,8.495023 -5.520454,13.413034 0.863401,7.377014 8.896654,7.86105 9.120494,9.773615 1.44082,10.563 1.334,20.1354 1.4412,20.46881 0.36774,3.14207 3.09164,5.44526 6.04955,5.08784 2.95792,-0.3574 5.07424,-3.24545 4.7065,-6.3875 -0.048,-0.40984 -2.35,-10.17608 -3.54917,-20.42193 -0.22384,-1.912561 7.5216,-3.887532 6.70145,-11.477586 -0.63484,-4.841581 -3.99066,-9.631468 -8.3872,-11.663279 z m 1.73266,45.094315 c -0.82923,1.07 -2.30818,1.2487 -3.36127,0.40615 -1.12829,-0.90275 -1.30417,-2.40547 -0.47494,-3.47547 0.82923,-1.07 2.30819,-1.24871 3.36127,-0.40615 1.05307,0.84257 1.30417,2.40547 0.47494,3.47547 z"
   fill="#607d8b"
   id="path2950"
   style="stroke-width:0.965071" /><g
   id="hand"
   style="fill:#241c1c"
   transform="rotate(50.904787,108.6244,113.29395)">
	
		<linearGradient
   id="SVGID_19_"
   gradientUnits="userSpaceOnUse"
   x1="141.62241"
   y1="10.2402"
   x2="131.9416"
   y2="24.0168"
   gradientTransform="rotate(180,124.3197,64)">
		<stop
   offset="0"
   style="stop-color:#FFB300"
   id="stop12999" />
		<stop
   offset="0.5"
   style="stop-color:#FFCA28"
   id="stop13001" />
	</linearGradient>
	<path
   style="fill:#241c1c"
   d="m 99.46,111.64 c 0.11,-2.84 2.23,-8.7 5,-9.19 0.17,-0.03 0.32,-0.11 0.41,-0.25 0.44,-0.67 1.85,-2.47 4.43,-1.05 0.96,0.53 1.3,1 1.14,1.68 0.12,0.14 0.34,0.31 0.66,0.18 1.04,-1.16 2.32,-1.4 3.81,-0.24 1.69,1.32 1.69,2.26 1.39,3.19 l 0.01,0.01 c 0,0 0.07,0.65 0.56,0.6 0.51,-0.44 1.12,-0.44 2.09,0.26 2.6,1.88 1.53,3.66 1.09,4.71 0.06,0.1 0.15,0.17 0.32,0.16 0.34,-0.18 0.77,-0.18 1.35,0.15 1.38,0.79 1.18,3.39 0.79,4.24 -0.43,0.93 -2.79,4.19 -3.61,5.11 -0.19,0.21 -0.42,0.36 -0.67,0.46 0.03,-0.01 0.06,-0.02 0.08,-0.03 -0.71,0.44 -1.95,0.97 -3.16,0.22 0,0 -0.77,-0.56 -0.84,-1.15 -1.31,0.73 -3.12,-0.63 -3.12,-0.63 -0.85,-0.65 -1.07,-1.38 -1.04,-2.01 v 0 c -0.43,0.26 -0.9,0.36 -1.35,0.37 -1.36,0.04 -2.61,-0.76 -2.61,-0.76 -1.95,-1.11 -2.34,-2.27 -2.33,-3.04 -1.01,0.63 -2.26,0.16 -2.26,0.16 -2.21,-1 -2.14,-3.15 -2.14,-3.15 z"
   id="path13004" />
</g><path
   id="tone_1_"
   style="fill:#808080;fill-opacity:1"
   d="m 107.01161,124.41707 c -0.0374,-0.18869 -0.0606,-0.37593 -0.0543,-0.57432 0.003,-0.0281 -4.9e-4,-0.064 0.0102,-0.0985 0.064,-0.4128 0.40162,-0.79019 1.63807,-0.85425 3.31788,-0.11892 5.35274,-0.75441 5.35274,-0.75441 1.42561,-0.4497 1.478,-0.74996 1.478,-0.74996 0.12077,-0.34295 -0.82366,-0.0781 -0.82366,-0.0781 -4.01928,0.71461 -6.08763,0.64286 -6.90982,0.55072 -0.0344,-0.0107 -0.0689,-0.0213 -0.0956,-0.0383 -0.1237,-0.0412 -0.2537,-0.0902 -0.37448,-0.15958 -0.0471,-0.0262 -0.10041,-0.0601 -0.14747,-0.0863 -0.10041,-0.0602 -0.1916,-0.14067 -0.2828,-0.22119 -0.0456,-0.0403 -0.0912,-0.0805 -0.13534,-0.13484 -0.082,-0.10089 -0.15619,-0.20809 -0.2212,-0.33567 -0.0301,-0.0529 -0.0679,-0.0994 -0.0902,-0.15861 -0.0796,-0.19306 -0.15766,-0.40018 -0.1892,-0.64514 -0.0165,-0.11545 -0.0267,-0.22313 -0.0291,-0.33713 0.006,-0.0563 0.005,-0.12029 0.0111,-0.17656 0.006,-0.0563 0.005,-0.1203 0.0112,-0.17657 0.015,-0.0766 0.0378,-0.15959 0.0529,-0.23623 0.0107,-0.0344 0.015,-0.0766 0.0335,-0.11739 0.0306,-0.0892 0.0674,-0.17074 0.11205,-0.25854 0.017,-0.0267 0.0276,-0.0611 0.0446,-0.0878 0.0446,-0.0878 0.10962,-0.16639 0.17462,-0.24497 0.017,-0.0267 0.0339,-0.0534 0.0509,-0.08 0.065,-0.0786 0.15037,-0.14795 0.22167,-0.21877 0.031,-0.0252 0.048,-0.0519 0.0713,-0.0708 0.0854,-0.0694 0.18335,-0.12321 0.28133,-0.17706 0.0374,-0.0175 0.0684,-0.0427 0.11351,-0.0665 0.098,-0.0538 0.21488,-0.0844 0.33324,-0.12904 0.0514,-0.016 0.0965,-0.0398 0.14018,-0.0495 3.93684,-0.26106 6.8618,-1.11728 6.8618,-1.11728 0.84498,-0.19696 1.56967,-0.6054 1.56967,-0.6054 0.19935,-0.48411 -0.57288,-0.37204 -0.57288,-0.37204 -5.3959,1.0343 -7.87268,1.06249 -7.87268,1.06249 0,0 -2.40061,0.39151 -2.84549,-2.66152 0,0 -0.17418,-1.5464 0.14499,-2.0892 0.26047,-0.45646 0.86,-1.09822 2.24488,-1.36019 0,0 3.52499,-0.81549 8.35144,-1.36131 0,0 0.6039,-0.27165 -0.0476,-0.50253 -0.50739,-0.18044 -1.16563,-0.0708 -1.40623,-0.0815 0,0 -2.58397,0.10241 -7.20813,0.96061 0,0 -1.0526,0.21103 -1.78312,0.0573 -0.54572,-0.29103 -0.92991,-0.90658 -0.97019,-1.89176 -0.0849,-2.13431 1.70787,-2.7664 3.73497,-3.18943 1.10402,-0.22704 3.60067,-0.72235 5.71024,-0.98046 0.10041,0.0602 0.20082,0.12029 0.28571,0.19305 0.27359,0.24156 0.60392,0.34681 0.93474,0.30994 1.63081,-0.16545 2.14543,-1.49844 -0.13148,-1.27186 -2.41183,-2.11194 -8.62069,0.0468 -11.05716,1.88477 0,0 0,0 0,0 -0.0854,0.0694 -2.04163,1.59448 -1.31202,4.30019 0.0272,0.081 0.34976,1.01718 1.15888,1.64824 -0.48651,0.71743 -0.81051,1.85687 -0.51409,3.66473 0.003,0.0359 0.22026,1.65069 1.19431,2.81775 0.18433,0.211 0.38419,0.40939 0.60247,0.56703 -0.30267,0.45209 -0.53064,1.07542 -0.5054,1.93108 0.004,0.0999 0.0796,2.04845 1.25835,3.02342 -0.17413,0.51515 -0.15762,1.04291 -0.15034,1.17873 0.065,0.53988 0.25759,1.01476 0.54186,1.42803 l 0.28377,0.34925 c 0.43464,0.47148 1.02789,0.85273 1.76229,1.1064 0.006,0.008 0.0141,0.001 0.0204,0.009 1.80012,0.53451 6.6445,-0.5284 6.99374,-0.81217 0.008,-0.006 -6.64351,1.06877 -8.05561,-1.43029 z" /></svg>
