<?xml version="1.0" encoding="UTF-8" standalone="no"?>
<!-- Created with Inkscape (http://www.inkscape.org/) -->

<svg
   width="48"
   height="48"
   viewBox="0 0 48 48"
   version="1.1"
   id="svg1"
   inkscape:version="1.3.2 (091e20e, 2023-11-25, custom)"
   sodipodi:docname="ordering-treadmill.svg"
   xmlns:inkscape="http://www.inkscape.org/namespaces/inkscape"
   xmlns:sodipodi="http://sodipodi.sourceforge.net/DTD/sodipodi-0.dtd"
   xmlns="http://www.w3.org/2000/svg"
   xmlns:svg="http://www.w3.org/2000/svg">
  <sodipodi:namedview
     id="namedview1"
     pagecolor="#ffffff"
     bordercolor="#666666"
     borderopacity="1.0"
     inkscape:showpageshadow="2"
     inkscape:pageopacity="0.0"
     inkscape:pagecheckerboard="0"
     inkscape:deskcolor="#d1d1d1"
     inkscape:document-units="px"
     inkscape:zoom="5.701459"
     inkscape:cx="27.799902"
     inkscape:cy="51.127264"
     inkscape:current-layer="layer1" />
  <defs
     id="defs1" />
  <g
     inkscape:label="Layer 1"
     inkscape:groupmode="layer"
     id="layer1"
     transform="translate(-185,-135)">
    <g
       id="g61"
       transform="matrix(1.6029082,0,0,1.6029082,-14.028865,84.064914)">
      <path
         d="m 151.90252,61.371392 h -25.52478 c -1.22799,0 -2.21039,-0.999941 -2.21039,-2.210394 V 33.987065 c 0,-1.227997 0.9824,-2.210394 2.21039,-2.210394 h 25.52478 c 1.21046,0 2.2104,0.982397 2.2104,2.210394 v 25.173933 c 0,1.210453 -0.99994,2.210394 -2.2104,2.210394 z"
         fill="#3c58a0"
         id="path1-3"
         style="clip-rule:evenodd;fill-rule:evenodd;stroke-width:0.0175428;image-rendering:optimizeQuality;shape-rendering:geometricPrecision;text-rendering:geometricPrecision" />
      <path
         d="m 139.67519,31.776671 h 0.96486 l -5.63124,5.824213 h -0.96486 z"
         fill="#2a428c"
         id="path2-5"
         style="clip-rule:evenodd;fill-rule:evenodd;stroke-width:0.0175428;image-rendering:optimizeQuality;shape-rendering:geometricPrecision;text-rendering:geometricPrecision" />
      <path
         d="m 151.34116,35.039634 h -10.43797 c -0.47366,0 -0.47366,-0.701713 0,-0.701713 h 10.43797 c 0.45612,0 0.45612,0.701713 0,0.701713 z"
         fill="#2a428c"
         id="path3-0"
         style="clip-rule:evenodd;fill-rule:evenodd;stroke-width:0.0175428;image-rendering:optimizeQuality;shape-rendering:geometricPrecision;text-rendering:geometricPrecision" />
      <path
         d="m 127.18471,35.688718 c -1.66656,0 -1.52622,0.157885 -1.52622,-1.508682 0,-0.280685 0.22806,-0.491199 0.4912,-0.491199 1.66656,0 1.52622,-0.157885 1.52622,1.508682 0,0.280685 -0.22805,0.491199 -0.4912,0.491199 z"
         fill="#f9656f"
         id="path4-5"
         style="clip-rule:evenodd;fill-rule:evenodd;stroke-width:0.0175428;image-rendering:optimizeQuality;shape-rendering:geometricPrecision;text-rendering:geometricPrecision" />
      <path
         d="m 130.44768,35.688718 c -1.66657,0 -1.52623,0.157885 -1.52623,-1.508682 0,-0.280685 0.22806,-0.491199 0.4912,-0.491199 1.66657,0 1.52622,-0.157885 1.52622,1.508682 0,0.280685 -0.22805,0.491199 -0.49119,0.491199 z"
         fill="#ffdd40"
         id="path5-3"
         style="clip-rule:evenodd;fill-rule:evenodd;stroke-width:0.0175428;image-rendering:optimizeQuality;shape-rendering:geometricPrecision;text-rendering:geometricPrecision" />
      <path
         d="m 133.71064,35.688718 c -1.66657,0 -1.52623,0.157885 -1.52623,-1.508682 0,-0.280685 0.21052,-0.491199 0.4912,-0.491199 1.66657,0 1.52623,-0.157885 1.52623,1.508682 0,0.280685 -0.22806,0.491199 -0.4912,0.491199 z"
         fill="#88ce65"
         id="path6-2"
         style="clip-rule:evenodd;fill-rule:evenodd;stroke-width:0.0175428;image-rendering:optimizeQuality;shape-rendering:geometricPrecision;text-rendering:geometricPrecision" />
      <path
         d="m 153.4112,37.600884 h -28.54214 v 21.560114 c 0,0.824512 0.68417,1.508681 1.50868,1.508681 h 25.52478 c 0.82451,0 1.50868,-0.684169 1.50868,-1.508681 z"
         fill="#deeeff"
         id="path7-86"
         style="clip-rule:evenodd;fill-rule:evenodd;stroke-width:0.0175428;image-rendering:optimizeQuality;shape-rendering:geometricPrecision;text-rendering:geometricPrecision" />
      <g
         id="treadmill-2"
         transform="matrix(0.36482142,0,0,0.36482142,24.61613,-39.285095)">
        <path
           d="m 347.42163,265.0653 v 4.03057 h -65.55534 v -4.03057 h 9.56014 15.0231 9.56016 16.38884 z"
           fill="#616161"
           id="path6-69-7"
           style="stroke-width:0.146638" />
        <path
           d="m 344.39871,226.77495 -3.02292,5.0382 h -11.08405 l 3.02292,-5.0382 z"
           fill="#bdbdbd"
           id="path7-6-6"
           style="stroke-width:0.125955" />
        <path
           d="m 281.28164,270.10351 a 1.4753576,1.007641 0 0 1 -1.47535,-1.00764 v -4.03057 a 1.4753576,1.007641 0 0 1 1.47535,-1.00764 h 54.58822 a 1.4753634,1.007645 0 0 1 0,2.01529 H 282.757 v 3.02292 a 1.4753576,1.007641 0 0 1 -1.47536,1.00764 z"
           fill="#8e8e8e"
           id="path14-3-7"
           style="stroke-width:0.152409" />
        <path
           d="m 347.05329,270.10351 h -66.04694 a 1.3759782,1.007641 0 0 1 0,-2.01528 h 64.67097 v -3.02293 a 1.3759782,1.007641 0 0 1 2.75195,0 v 4.03057 a 1.3759782,1.007641 0 0 1 -1.37598,1.00764 z"
           fill="#373737"
           id="path15-9-4"
           style="stroke-width:0.147187" />
        <path
           d="m 347.42163,266.07295 h -11.08405 a 1.007641,1.007641 0 0 1 -0.99139,-0.8274 l -6.04585,-33.25216 a 1.007646,1.007646 0 0 1 1.98279,-0.36048 l 5.89546,32.42475 h 9.03564 l -5.82983,-32.06427 a 1.0076441,1.0076441 0 0 1 1.98278,-0.36048 l 6.04585,33.25215 a 1.007641,1.007641 0 0 1 -0.9914,1.18789 z"
           fill="#373737"
           id="path16-1-8"
           style="stroke-width:0.125955" />
        <path
           d="m 330.29073,232.82079 a 1.007641,1.007641 0 0 1 -0.86304,-1.52619 l 3.02292,-5.03821 a 1.007641,1.007641 0 0 1 0.86405,-0.48908 h 11.08405 a 1.007641,1.007641 0 0 1 0,2.01528 h -10.5136 l -2.72932,4.54899 a 1.007641,1.007641 0 0 1 -0.86506,0.48921 z"
           fill="#8e8e8e"
           id="path17-5-2"
           style="stroke-width:0.125955" />
        <path
           d="m 341.37579,232.82079 h -11.08405 a 1.007641,1.007641 0 0 1 0,-2.01528 h 10.5136 l 2.72932,-4.54899 a 1.0076493,1.0076493 0 0 1 1.7281,1.03686 l -3.02292,5.0382 a 1.007641,1.007641 0 0 1 -0.86405,0.48921 z"
           fill="#373737"
           id="path18-6-2"
           style="stroke-width:0.125955" />
        <path
           d="m 330.29174,232.82079 h -8.06113 a 1.007641,1.007641 0 0 1 0,-2.01528 h 8.06113 a 1.007641,1.007641 0 0 1 0,2.01528 z"
           fill="#373737"
           id="path19-8-1"
           style="stroke-width:0.125955" />
      </g>
      <g
         id="g56"
         transform="matrix(0.52044798,0,0,0.52044798,125.39299,39.693735)">
        <circle
           cx="15"
           cy="15"
           fill="#4caf50"
           r="15"
           id="circle903" />
        <path
           d="m 13.4,12 c 0.1,0.2 0.2,0.4 0.4,0.6 0.2,0.2 0.4,0.4 0.7,0.5 0.3,0.2 0.7,0.3 1.1,0.5 0.7,0.3 1.4,0.6 2,0.9 0.6,0.3 1.1,0.7 1.5,1.1 0.4,0.4 0.8,0.9 1,1.4 0.2,0.5 0.4,1.2 0.4,1.9 0,0.7 -0.1,1.3 -0.3,1.8 -0.2,0.5 -0.5,1 -0.9,1.4 -0.4,0.4 -0.9,0.7 -1.4,0.9 -0.6,0.2 -1.2,0.4 -1.8,0.5 v 2.2 H 14.3 V 23.5 C 13.7,23.4 13.1,23.3 12.5,23.1 11.9,22.9 11.4,22.6 11,22.1 10.5,21.7 10.2,21.1 9.9,20.5 9.6,19.9 9.5,19.1 9.5,18.2 h 3.3 c 0,0.5 0.1,1 0.2,1.3 0.1,0.4 0.3,0.6 0.6,0.9 0.2,0.2 0.5,0.4 0.8,0.5 0.3,0.1 0.6,0.1 0.9,0.1 0.4,0 0.7,0 0.9,-0.1 0.3,-0.1 0.5,-0.2 0.7,-0.4 0.2,-0.2 0.3,-0.4 0.4,-0.6 0.1,-0.2 0.1,-0.5 0.1,-0.8 0,-0.3 0,-0.6 -0.1,-0.8 -0.1,-0.2 -0.2,-0.5 -0.4,-0.7 -0.2,-0.2 -0.4,-0.4 -0.7,-0.5 -0.3,-0.2 -0.7,-0.3 -1.1,-0.5 -0.7,-0.3 -1.4,-0.6 -2,-0.9 -0.6,-0.3 -1.1,-0.7 -1.5,-1.1 -0.4,-0.4 -0.8,-0.9 -1,-1.4 -0.2,-0.5 -0.4,-1.2 -0.4,-1.9 0,-0.6 0.1,-1.2 0.3,-1.7 0.2,-0.5 0.5,-1 0.9,-1.4 0.4,-0.4 0.9,-0.7 1.4,-1 C 13.3,7 14,6.8 14.6,6.7 V 4.3 h 1.8 v 2.4 c 0.6,0.1 1.2,0.3 1.8,0.6 0.5,0.3 1,0.6 1.3,1.1 0.4,0.4 0.7,1 0.9,1.6 0.2,0.6 0.3,1.3 0.3,2 h -3.3 c 0,-0.9 -0.2,-1.6 -0.6,-2 C 16.4,9.6 15.9,9.3 15.3,9.3 15,9.3 14.7,9.4 14.4,9.5 14.2,9.6 14,9.7 13.8,9.9 c -0.2,0.2 -0.3,0.4 -0.3,0.6 -0.1,0.2 -0.1,0.5 -0.1,0.8 -0.1,0.2 0,0.5 0,0.7 z"
           fill="#ffffff"
           id="path905" />
      </g>
    </g>
  </g>
</svg>
